<?xml version="1.0" encoding="utf-8"?>
<!-- Generator: Adobe Illustrator 26.3.1, SVG Export Plug-In . SVG Version: 6.00 Build 0)  -->
<svg version="1.1" id="Layer_1" xmlns="http://www.w3.org/2000/svg" xmlns:xlink="http://www.w3.org/1999/xlink" x="0px" y="0px"
	 viewBox="0 0 1069.38 464.64" style="enable-background:new 0 0 1069.38 464.64;" xml:space="preserve">
<style type="text/css">
	.st0{fill:#FFFFFF;}
	.st1{fill-rule:evenodd;clip-rule:evenodd;}
	.st2{fill:none;stroke:#000000;stroke-width:1.8675;}
	.st3{fill:#221F1F;}
	.st4{fill-rule:evenodd;clip-rule:evenodd;fill:#010101;}
</style>
<g>
	<g>
		<path d="M170.08,298.29c-1.47,0-3.04-0.21-4.76-0.55c-1.1-0.26-2.07-0.4-2.45-0.4c-0.77,0-1.08,0.14-1.52,0.9
			c-0.25,0.46-0.4,0.51-0.91,0.51c-0.4,0-0.62-0.16-0.62-0.51c0-0.62,0.12-1.22,0.15-1.83l0.12-2.22c0.05-1.35-0.14-2.54-0.14-3.86
			c0-0.35,0.1-0.45,0.41-0.45c0.75,0,0.79,0.04,1,0.61c0.44,1.41,1.62,3.12,2.82,4.16c1.19,1,2.93,1.6,4.89,1.6
			c3.9,0,6.8-2.35,6.8-5.46c0-1.11-0.35-2.12-0.98-2.93c-0.8-1-1.36-1.39-6.02-4.46c-5.91-3.86-8.19-6.87-8.19-10.78
			c0-5.38,3.88-9.26,9.25-9.26c1.41,0,3.03,0.31,4.87,0.8c0.45,0.15,0.8,0.21,1.06,0.21c0.44,0,0.69-0.16,1-0.61
			c0.21-0.31,0.41-0.6,0.82-0.6c0.81,0,0.91,0.09,0.91,0.85c0,0.3,0,0.61-0.05,0.96c-0.1,0.75-0.14,1.85-0.14,2.72
			c0,0.75,0.09,1.4,0.09,2.11c0,0.45-0.14,0.55-0.77,0.55c-0.35,0-0.44-0.03-0.6-0.4c-0.9-1.85-1.41-2.56-2.42-3.31
			c-1.16-0.8-2.74-1.31-4.25-1.31c-2.95,0-5.13,1.81-5.13,4.27c0,2.55,1.82,4.52,7.65,8.39c2.03,1.34,3.64,2.56,4.81,3.6
			c1.93,1.77,3.14,4.42,3.14,6.92C180.92,294.05,176.22,298.29,170.08,298.29z"/>
		<path d="M203.75,281.25H198h-5.09c0.1-1.23,0.15-1.64,0.3-2.23c0.66-2.53,2.12-4.23,4.95-4.23
			C201.22,274.8,203.34,277.18,203.75,281.25z M210.67,293.21c0-0.36-0.51-1.12-0.86-1.12c-0.15,0-0.35,0.16-0.56,0.3
			c-1.81,1.41-4.94,2.44-7.41,2.44c-5.04,0-8.63-4.66-8.83-11.46h1.67c4.69,0,9.37,0.12,14.07,0.12c0.95,0,1.3-0.26,1.3-0.91
			c0-1.18-0.81-3.56-1.66-4.96c-1.92-3.07-5.26-4.85-9.28-4.85c-6.82,0-12.09,5.41-12.09,12.32c0,7.31,5.78,13.21,12.99,13.21
			c3.8,0,6.86-1.32,10.14-4.33C210.52,293.65,210.67,293.41,210.67,293.21z"/>
		<path d="M230.03,289.64c0,2.15-0.06,2.45-0.3,3.16c-0.56,1.45-2.62,2.25-4.02,2.25c-2.07,0-3.43-1.46-3.43-3.57
			c0-1.71,0.76-3.05,2.22-3.85c1.1-0.6,2.76-1.32,5.53-2.27V289.64z M241.16,293.5c0-0.3-0.67-0.7-0.92-0.7
			c-0.05,0-0.19,0.13-0.35,0.35c-0.66,1.05-1.35,1.6-2.1,1.6c-0.72,0-1.32-0.5-1.54-1.25c-0.2-0.86-0.24-1.05-0.24-3.42l-0.06-7.72
			c-0.06-5.83-2.06-9.74-8.58-9.74c-2.66,0-5.13,0.94-7,2.76c-0.75,0.75-3.22,4.05-3.22,5.11c0,0.36,0.71,0.7,1.01,0.7
			c0.14,0,0.36-0.15,0.54-0.51c1.61-2.7,3.79-4.06,6.41-4.06c1.7,0,3.21,0.77,4.03,2.02c0.6,0.98,0.79,2.01,0.79,4.85l-1.44,0.5
			c-5.49,1.91-8.22,2.97-9.53,3.92c-1.78,1.26-2.72,2.97-2.72,4.82c0,3.31,2.66,5.64,6.54,5.64c2.87,0,5.33-1.16,7.44-3.48
			c0.57,1.45,1.07,2.1,2.03,2.72c0.81,0.5,1.89,0.81,2.9,0.81c2.18,0,4.24-1.32,5.23-3.29C240.49,294.99,241.16,293.79,241.16,293.5
			z"/>
		<path d="M261.6,295.92c-2.14,1.64-4.29,2.47-6.51,2.47c-1.87,0-3.55-0.76-4.75-2.13c-1.31-1.46-1.66-2.92-1.66-6.97v-13.79h-2.57
			c-0.39,0-0.57-0.15-0.57-0.47c0-0.69,1.43-1.58,1.74-1.84l2.96-2.62c1.3-1.17,2.17-1.93,2.53-2.27c0.71-0.76,1.21-1.06,1.56-1.06
			c0.44,0,0.64,0.3,0.64,0.85c0,0.21,0.06-0.15-0.15,1.77c-0.09,0.85-0.09,1.64-0.2,3.43h4.39h1.51h0.11c0.81,0,0.65,0.65,0.65,1.3
			c0,0.8-0.09,0.89-0.65,0.89h-2.07h-4v11.07v2.65c0,2.92,0.17,3.58,0.72,4.42c0.55,0.76,1.47,1.27,2.53,1.27
			c1.1,0,2.46-0.51,3.37-1.17c0.51-0.44,0.7-0.53,0.92-0.53c0.33,0,0.85,0.81,0.85,1.1C262.96,294.6,262.35,295.3,261.6,295.92z"/>
		<path d="M284.85,295.92c-2.14,1.64-4.29,2.47-6.51,2.47c-1.87,0-3.54-0.76-4.75-2.13c-1.3-1.46-1.67-2.92-1.67-6.97v-13.79h-2.58
			c-0.4,0-0.55-0.15-0.55-0.47c0-0.69,1.42-1.58,1.73-1.84l2.97-2.62c1.31-1.17,2.18-1.93,2.52-2.27c0.71-0.76,1.22-1.06,1.58-1.06
			c0.44,0,0.65,0.3,0.65,0.85c0,0.21,0.05-0.15-0.15,1.77c-0.1,0.85-0.1,1.64-0.2,3.43h4.39h1.5h0.11c0.81,0,0.65,0.65,0.65,1.3
			c0,0.8-0.1,0.89-0.65,0.89h-2.07h-3.99v11.07v2.65c0,2.92,0.16,3.58,0.71,4.42c0.55,0.76,1.46,1.27,2.53,1.27
			c1.11,0,2.45-0.51,3.36-1.17c0.51-0.44,0.69-0.53,0.91-0.53c0.34,0,0.86,0.81,0.86,1.1C286.21,294.6,285.61,295.3,284.85,295.92z"
			/>
		<path d="M305.02,297.77c-2.01,0-4.19-0.14-6.28-0.2c-2.07-0.05-4.18,0.2-6.25,0.2c-0.51,0-0.57-0.09-0.57-0.63
			c0-0.6,0.11-0.75,0.67-0.8c1.35-0.21,2.21-0.52,2.6-0.92c0.77-0.74,0.57-3.17,0.57-4.02v-1.82v-21.38v-1.08
			c0-0.81,0.15-2.29-0.71-2.79c-0.44-0.29-1.92-0.45-2.46-0.55c-0.52-0.1-0.61-0.16-0.61-0.71c0-0.6,0.08-0.76,0.7-0.87
			c2.12-0.44,2.92-0.65,3.84-0.9c0.4-0.09,3.95-1.2,4.49-1.2c0.51,0,0.72,0.33,0.72,1.15c-0.05,3.73-0.05,2.17-0.05,8.32v20
			c0,2.17,0.05,1.36,0.05,4.18c0,2.06,1.35,2.32,3.18,2.58c0.51,0.05,0.66,0.2,0.66,0.8C305.58,297.68,305.49,297.77,305.02,297.77z
			"/>
		<path d="M328.65,281.25h-5.76h-5.09c0.09-1.23,0.16-1.64,0.3-2.23c0.67-2.53,2.12-4.23,4.96-4.23
			C326.12,274.8,328.25,277.18,328.65,281.25z M335.55,293.21c0-0.36-0.49-1.12-0.86-1.12c-0.13,0-0.35,0.16-0.55,0.3
			c-1.83,1.41-4.95,2.44-7.42,2.44c-5.05,0-8.63-4.66-8.84-11.46h1.66c4.7,0,9.4,0.12,14.09,0.12c0.97,0,1.29-0.26,1.29-0.91
			c0-1.18-0.79-3.56-1.65-4.96c-1.9-3.07-5.25-4.85-9.27-4.85c-6.8,0-12.08,5.41-12.08,12.32c0,7.31,5.77,13.21,12.98,13.21
			c3.78,0,6.86-1.32,10.14-4.33C335.41,293.65,335.55,293.41,335.55,293.21z"/>
		<path d="M377.39,269.6c0,1.65-0.57,3.41-1.56,4.67c-0.77,0.96-1.38,1.4-3.09,2.37c-1.93-2.07-2.33-2.52-3.09-3.68
			c-0.72-1.06-1.12-2.17-1.12-3.26c0-2.71,2.12-4.99,4.7-4.99C375.71,264.72,377.39,266.75,377.39,269.6z M392.74,294.49
			c0-0.34-0.44-1.09-0.85-1.09c-0.12,0-0.26,0.03-0.46,0.2c-1.23,0.71-2.88,1.31-3.69,1.31c-0.53,0-1.11-0.25-1.56-0.75
			c-0.56-0.62-0.85-0.92-2.47-3.69l-0.7-1.21c1.42-2.62,1.97-3.71,2.73-5.74c0.7-1.86,1.2-2.66,1.96-3.12
			c0.74-0.45,1.91-0.67,3.48-0.67c0.91,0,1.07-0.1,1.07-0.88c0-0.7-0.16-0.85-0.62-0.85c-2.05,0-4.38,0.15-6.39,0.2
			c-1.37,0.06-2.8-0.1-4.2-0.1c-0.69,0-0.8,0.1-0.8,0.75c0,0.64,0.05,0.88,0.75,0.88c1.83,0.06,2.64,0.82,2.64,2.42
			c0,1.3-0.46,2.58-1.86,5.54c-1.31-1.81-1.8-2.46-2.67-3.58c-1.16-1.51-1.61-2.06-4.14-4.98l-1.06-1.19
			c1.56-0.55,2.21-0.8,3.24-1.35c2.5-1.4,4.57-3.57,4.57-6.68c0-4.02-3.45-6.85-8.42-6.85c-5.81,0-10.15,3.38-10.15,7.94
			c0,1.42,0.39,2.72,1.21,4.03c0.86,1.42,1.42,2.12,3.38,4.17c-5.78,2.01-8.75,5.38-8.75,9.77c0,5.34,4.91,9.64,10.98,9.64
			c4.23,0,6.83-1.76,9.54-4.67c0.96,1.42,1.31,1.98,1.69,2.76c0.82,1.46,0.96,1.71,1.48,2.01c0.55,0.35,1.61,0,2.16-0.2
			c1.42-0.5,4.44-1.91,6.81-3.11C392.44,294.94,392.74,294.75,392.74,294.49z M378.37,292.38c-1.76,1.95-3.42,3.43-6.21,3.43
			c-3.77,0-7.36-4.13-7.36-8.51c0-3.37,1.31-5.08,3.98-6.8c1.63,1.72,2.23,2.44,3.84,4.38c0.92,1.05,1.83,2.21,2.79,3.41
			C376.93,290.16,377.29,290.66,378.37,292.38z"/>
		<path d="M446.88,297.85c-0.1,0,0.36-0.05-2.52-0.11l-2.52-0.05c-1.17,0-2.22,0.05-3.17,0.11c-1.07,0.05-1.67-0.07-2.32-0.95
			l-1.61-2.2l-10.65-14.07v7.92c0,0.79,0.07,1.96,0.07,3.41c0.03,1.73,0.2,2.45,0.54,3.04c0.5,0.75,1.42,1.15,3.17,1.46
			c0.46,0.09,0.55,0.2,0.55,0.76c0,0.63,0,0.68-0.46,0.68c-1.11,0-2.36-0.16-3.41-0.2c-0.97-0.05-2.17-0.05-3.64-0.05
			c-1.47,0-2.68,0-3.64,0.05c-1.04,0.04-2.35,0.2-3.47,0.2c-0.41,0-0.41-0.05-0.41-0.68c0-0.56,0.1-0.72,0.57-0.76
			c1.4-0.25,2.01-0.47,2.61-0.91c1.02-0.79,1.17-1.57,1.17-7v-15.38c0-0.8-0.05-1.96-0.05-3.48c-0.05-1.66-0.2-2.41-0.55-2.96
			c-0.57-0.83-1.42-1.23-3.18-1.52c-0.47-0.06-0.57-0.21-0.57-0.71c0-0.7,0-0.7,0.41-0.7c1.12,0,2.43,0.09,3.47,0.15
			c0.97,0.05,2.18,0.11,3.64,0.11c1.47,0,2.67-0.06,3.64-0.11c1.1-0.05,2.3-0.15,3.41-0.15c0.46,0,0.46,0,0.46,0.7
			c0,0.5-0.09,0.65-0.55,0.71c-1.4,0.26-2.01,0.44-2.62,0.95c-1.01,0.81-1.17,1.5-1.17,7.01v6.06l8.52-9.13
			c2.03-2.11,2.53-2.91,2.53-3.53c0-0.66-0.57-1.09-1.67-1.25c-0.53-0.05-0.64-0.21-0.64-0.71c0-0.65,0.05-0.8,0.44-0.8
			c0.61,0,1.17,0.05,1.76,0.05l2.95,0.05l3.76-0.09h1c0.45,0,0.45,0.05,0.45,0.64c0,0.82-0.09,0.97-1,1.02
			c-1.17,0.09-2.06,0.34-2.81,0.9c-0.52,0.36-1.02,0.82-1.56,1.36c-0.35,0.4-1.06,1.16-2.13,2.31l-6.64,7.11l10.87,13.93l0.76,0.88
			l1.72,2.1c1.11,1.29,2.47,2.05,4.44,2.45c0.49,0.11,0.61,0.2,0.61,0.67C447.44,297.69,447.32,297.85,446.88,297.85z"/>
		<path d="M459.14,269.64c-2.13,0-3.79-1.66-3.79-3.72c0-2.11,1.66-3.77,3.79-3.77c2.07,0,3.74,1.75,3.74,3.77
			C462.89,267.99,461.22,269.64,459.14,269.64z M465.6,297.77c-2.07,0-4.19-0.14-6.26-0.2c-2.08-0.05-4.2,0.2-6.27,0.2
			c-0.5,0-0.54-0.09-0.54-0.63c0-0.6,0.09-0.75,0.66-0.8c1.15-0.17,2.7-0.36,3-1.73c0.12-0.49,0.16-0.78,0.16-3.2v-1.8v-8.6v-1.12
			c0-0.79,0.1-2.24-0.7-2.75c-0.66-0.41-1.71-0.49-2.46-0.56c-0.52-0.03-0.61-0.13-0.61-0.74c0-0.55,0.1-0.71,0.7-0.81
			c2.11-0.44,2.92-0.65,3.84-0.9c1.41-0.35,3.96-1.21,4.51-1.21c0.5,0,0.71,0.36,0.71,1.17c-0.05,3.72-0.05,2.49-0.05,6.34v1.94
			v7.25l0.05,1.8v2.37c0,2.06,1.36,2.31,3.17,2.56c0.51,0.05,0.66,0.2,0.66,0.8C466.16,297.68,466.07,297.77,465.6,297.77z"/>
		<path d="M502.6,297.77c-2.07,0-4.18-0.14-6.25-0.2c-1.98-0.05-4.03,0.2-6.01,0.2c-0.46,0-0.55-0.09-0.55-0.63
			c0-0.6,0.1-0.7,0.66-0.8c1.11-0.17,2.51-0.4,2.76-1.73c0.19-0.98,0.14-2.18,0.14-3.2v-1.8v-4.16v-3.46c0-3.57-1.09-5.83-4.9-5.83
			c-1.44,0-2.75,0.31-3.87,0.91c-1.05,0.61-1.55,1.24-1.74,2.31c-0.1,0.75-0.15,1.26-0.15,3.26v6.97c0,2.15,0.05,1.35,0.05,4.17
			c0,1.95,1.15,2.31,2.91,2.56c0.5,0.05,0.6,0.2,0.6,0.8c0,0.53-0.06,0.63-0.52,0.63c-1.96,0-4.01-0.25-5.99-0.2
			c-2.07,0.05-4.25,0.2-6.28,0.2c-0.49,0-0.54-0.09-0.54-0.63c0-0.6,0.11-0.75,0.65-0.8c1.17-0.17,2.73-0.36,3.04-1.73
			c0.11-0.49,0.15-0.77,0.15-3.2v-1.8v-9.68c0-1.97-0.1-2.41-0.7-2.76c-0.37-0.26-0.87-0.41-1.87-0.5
			c-0.76-0.05-1.21,0.09-1.21-0.81c0-0.54,0.11-0.71,0.72-0.81c2.11-0.45,2.97-0.66,3.83-0.91c0.87-0.26,3.79-1.21,4.51-1.21
			c0.5,0,0.7,0.34,0.7,1.16c0,0.15,0,1.11-0.05,2.18c0.51-0.41,0.84-0.76,1.09-0.96c2.22-1.79,5.01-2.69,7.83-2.69
			c4.83,0,7.31,2.52,7.58,7.25c0.03,1.25,0.1,3.06,0.1,6.07v3.66c0,2.15,0.05,1.35,0.05,4.17c0,0.81,0.19,1.3,0.49,1.64
			c0.41,0.42,1.27,0.72,2.69,0.92c0.51,0.05,0.65,0.2,0.65,0.8C503.16,297.68,503.06,297.77,502.6,297.77z"/>
		<path d="M526.33,282.43c0,3.06-1.82,5.28-4.63,5.28c-4.07,0-6.37-4.64-6.37-8.16c0-3.11,1.92-5.28,4.73-5.28
			C523.4,274.27,526.33,278.1,526.33,282.43z M534.25,274.64c0-1.11-0.11-1.27-0.87-1.27c-0.69,0-1.41,0.06-2.1,0.06
			c-3.72,0-4.28,0-7.17-0.55c-1.77-0.29-3.08-0.5-3.93-0.5c-5.87,0-10.53,4.06-10.53,9.23c0,3.81,2.39,6.8,5.92,7.44
			c0.4,0.05,0.67,0.22,0.67,0.31c0,0.15-0.16,0.27-0.67,0.37c-2.32,0.51-4.45,2.81-4.45,4.77c0,1.42,1.07,2.93,2.42,3.39
			c0.61,0.19,0.82,0.32,0.82,0.46c0,0.15-0.24,0.3-0.61,0.35c-2.83,0.6-5.01,2.93-5.01,5.4c0,4.37,5.22,7.91,11.8,7.91
			c7.33,0,12.75-3.98,12.75-9.32c0-4.73-3.86-6.45-7.75-7.45c-2.12-0.56-4.19-1.03-6.21-1.39c-2.27-0.4-3.03-0.86-3.03-1.71
			c0-1,0.88-1.51,3.03-2.02l4.5-1.01c5.49-1.2,8.13-3.81,8.13-8.14c0-2.16-0.78-3.76-2.52-5.47l0.99,0.05
			c1.06,0.04,2.06,0.16,3.12,0.16C534.09,275.7,534.25,275.49,534.25,274.64z M528.81,304.55c0,3.03-3.33,5.5-7.42,5.5
			s-8.05-3.54-8.05-7.21c0-2.32,2.13-3.5,6.42-3.5C525.22,299.35,528.81,301.43,528.81,304.55z"/>
		<path d="M585.71,294.31c-3.48,2.47-8.17,3.98-12.31,3.98c-10.2,0-18.14-7.5-18.14-17.18c0-9.63,7.58-17.68,16.68-17.68
			c1.91,0,3.17,0.26,6.45,1.15c1.65,0.46,2.21,0.56,2.85,0.56c0.97,0,1.44-0.26,2.17-1.48c0.16-0.27,0.25-0.31,0.57-0.31
			c0.85,0,0.94,0.09,0.94,0.75c0,1.83-0.14,3.75-0.14,5.61c0,0.91,0.1,1.8,0.1,2.67c0,0.5-0.19,0.64-0.81,0.64
			c-0.2,0-0.33-0.05-0.45-0.11c-0.15-0.04-0.22-0.14-0.92-1.3c-0.71-1.26-1.29-2.05-2.11-2.85c-2.07-2.12-4.74-3.28-7.67-3.28
			c-6.37,0-10.65,5.69-10.65,14.07c0,9.29,5.41,15.96,13.02,15.96c3.09,0,7.08-1.21,9.59-2.88c0.16-0.09,0.31-0.14,0.41-0.14
			c0.36,0,0.82,0.95,0.82,1.26C586.13,293.95,586.02,294.09,585.71,294.31z"/>
		<path d="M611.1,287.97c0,5.12-2.37,8.29-6.26,8.29c-4.88,0-8.92-6.06-8.92-13.39c0-4.81,2.47-7.97,6.26-7.97
			C606.91,274.9,611.1,281.01,611.1,287.97z M617.07,285.47c0-7.28-5.81-12.86-13.43-12.86c-7.66,0-13.82,5.78-13.82,12.99
			c0,7.19,6.05,12.77,13.82,12.77C611.15,298.38,617.07,292.69,617.07,285.47z"/>
		<path d="M651.65,296.02c-2.13,0.46-2.99,0.62-3.84,0.86c-0.26,0.07-3.98,1.21-4.53,1.21c-0.45,0-0.64-0.34-0.64-1.1
			c0-0.15,0-1.07,0.03-2.03c-1.56,1.3-2.33,1.77-3.49,2.33c-1.66,0.8-3.34,1.16-5.32,1.16c-5.05,0-7.15-2.64-7.52-7.46
			c-0.09-1.25-0.09-2.37-0.09-5.97v-4.01c0-0.92,0.19-3.32-0.71-3.88c-0.74-0.44-1.62-0.44-2.47-0.55
			c-0.56-0.05-0.65-0.15-0.65-0.74c0-0.56,0.09-0.71,0.69-0.81c2.13-0.44,2.98-0.65,3.85-0.9c0.16-0.05,4.13-1.21,4.54-1.21
			c0.46,0,0.64,0.36,0.64,1.16v3.12v8.58v3.26c0,2.36,0.36,3.58,1.22,4.48c0.86,0.89,2.22,1.4,3.84,1.4c1.48,0,3.1-0.41,4.32-1.25
			c0.89-0.67,1.07-1.16,1.12-2.66l0.03-2.46v-7.52l-0.03-1.12c-0.05-0.84,0.14-2.24-0.72-2.76c-0.36-0.18-0.91-0.4-1.87-0.5
			c-0.76-0.05-1.21,0.1-1.21-0.8c0-0.56,0.11-0.71,0.72-0.81c2.12-0.44,2.97-0.65,3.83-0.9c0.41-0.11,3.94-1.21,4.5-1.21
			c0.5,0,0.71,0.36,0.71,1.16v3.12c0,3.83-0.06,2.86-0.06,5.18v8.71c0,1.98,0.11,2.48,0.71,2.83c0.76,0.46,1.62,0.4,2.48,0.49
			c0.54,0.06,0.65,0.2,0.65,0.76C652.35,295.7,652.2,295.92,651.65,296.02z"/>
		<path d="M687.58,297.77c-2.06,0-4.19-0.14-6.27-0.2c-1.97-0.05-4.04,0.2-6,0.2c-0.45,0-0.54-0.09-0.54-0.63
			c0-0.6,0.1-0.7,0.65-0.8c1.13-0.17,2.53-0.4,2.77-1.73c0.2-0.98,0.15-2.18,0.15-3.2v-1.8v-4.16v-3.46c0-3.57-1.09-5.83-4.92-5.83
			c-1.46,0-2.76,0.31-3.86,0.91c-1.05,0.61-1.55,1.24-1.75,2.31c-0.11,0.75-0.15,1.26-0.15,3.26v6.97c0,2.15,0.03,1.35,0.03,4.17
			c0,1.95,1.17,2.31,2.92,2.56c0.49,0.05,0.6,0.2,0.6,0.8c0,0.53-0.05,0.63-0.52,0.63c-1.94,0-4.01-0.25-5.98-0.2
			c-2.09,0.05-4.24,0.2-6.26,0.2c-0.51,0-0.56-0.09-0.56-0.63c0-0.6,0.1-0.75,0.66-0.8c1.17-0.17,2.73-0.36,3.04-1.73
			c0.07-0.49,0.13-0.77,0.13-3.2v-1.8v-9.68c0-1.97-0.1-2.41-0.71-2.76c-0.33-0.26-0.84-0.41-1.86-0.5
			c-0.74-0.05-1.21,0.09-1.21-0.81c0-0.54,0.12-0.71,0.72-0.81c2.1-0.45,2.96-0.66,3.83-0.91c0.86-0.26,3.78-1.21,4.51-1.21
			c0.51,0,0.7,0.34,0.7,1.16c0,0.15,0,1.11-0.03,2.18c0.49-0.41,0.84-0.76,1.09-0.96c2.22-1.79,5.01-2.69,7.81-2.69
			c4.84,0,7.34,2.52,7.59,7.25c0.04,1.25,0.08,3.06,0.08,6.07v3.66c0,2.15,0.06,1.35,0.06,4.17c0,0.81,0.21,1.3,0.52,1.64
			c0.41,0.42,1.25,0.72,2.68,0.92c0.5,0.05,0.64,0.2,0.64,0.8C688.13,297.68,688.03,297.77,687.58,297.77z"/>
		<path d="M709.01,295.92c-2.11,1.64-4.29,2.47-6.52,2.47c-1.87,0-3.52-0.76-4.73-2.13c-1.31-1.46-1.66-2.92-1.66-6.97v-13.79h-2.57
			c-0.39,0-0.56-0.15-0.56-0.47c0-0.69,1.41-1.58,1.72-1.84l2.97-2.62c1.31-1.17,2.17-1.93,2.53-2.27c0.69-0.76,1.21-1.06,1.54-1.06
			c0.48,0,0.67,0.3,0.67,0.85c0,0.21,0.05-0.15-0.13,1.77c-0.11,0.85-0.11,1.64-0.23,3.43h4.4h1.5h0.12c0.79,0,0.65,0.65,0.65,1.3
			c0,0.8-0.11,0.89-0.65,0.89h-2.08H702v11.07v2.65c0,2.92,0.15,3.58,0.69,4.42c0.57,0.76,1.47,1.27,2.52,1.27
			c1.13,0,2.48-0.51,3.38-1.17c0.51-0.44,0.72-0.53,0.91-0.53c0.36,0,0.87,0.81,0.87,1.1C710.37,294.6,709.77,295.3,709.01,295.92z"
			/>
		<path d="M740.48,275.06c-0.97,0.29-1.62,0.85-2.29,1.85c-0.74,1.21-1.4,2.58-3.25,6.77l-3.57,8c-2.56,5.74-4.3,9.76-5.26,12.08
			c-1.07,2.52-1.99,4.84-2.63,6.7c-0.69,2.02-0.81,2.9-3.24,2.9c-0.49,0-0.95-0.05-1.46-0.05c-0.35,0-0.85,0-0.85-0.44
			c0-0.33,0.24-0.8,1.67-3.27c1.32-2.3,2.63-4.63,3.94-6.95c1.85-3.22,2.32-4.12,2.63-4.94c0.21-0.45,0.24-0.9,0.24-1.19
			c0-0.43-0.34-1.52-0.84-2.7c-1.57-3.71-1.19-2.77-2.17-5.07c-1.21-2.82-2.43-5.7-3.75-8.52c-0.65-1.43-1.31-2.82-2.16-4.13
			c-0.45-0.71-0.9-0.91-2.32-1.11c-0.52-0.1-0.68-0.29-0.68-1.01c0-0.55,0.11-0.66,0.82-0.66c1.87,0,3.78,0.16,5.71,0.16
			c1.71,0,3.58-0.16,5.36-0.16c0.39,0,0.54,0.16,0.54,0.81c0,0.47-0.1,0.58-0.61,0.67c-1.36,0.36-1.81,0.77-1.81,1.35
			c0,0.85,1.9,5.04,2.26,5.85l3.35,7.75l1.62-3.61c2.05-4.64,1.45-3.43,2.69-6.51c0.78-1.81,1.01-2.63,1.01-3.29
			c0-0.59-0.45-1.04-1.01-1.29c-0.49-0.2-1.35-0.16-1.35-0.87c0-0.75,0.11-0.86,0.82-0.86c1.2,0,2.37,0.11,3.57,0.11
			c1.26,0,2.52-0.15,3.72-0.15c0.52,0,0.68,0.15,0.68,0.76C741.86,274.91,741.24,274.81,740.48,275.06z"/>
	</g>
	<g>
		<rect x="754.29" y="151.26" class="st0" width="160.61" height="160.61"/>
		<g>
			<path class="st1" d="M759.87,157.19c0,0,23.07,0,23.24,0c-0.05,9.9,0.96,18.38,1.73,27.19c0.15,1.58,0.36,3.09,0.32,4.6
				c-0.05,1.48-0.46,2.91-0.46,4.44c0.01,2.99,1.6,4.96,1.99,7.52c0.63,4.02,0.2,8.25,0.47,12.28c0.49,7.8,3.16,14.09,5.53,20.25
				c1.23,3.25,1.84,6.63,2.76,10.13c0.89,3.43,1.9,6.65,3.22,9.67c2.39,5.5,6.31,11.07,9.67,16.11c1.75,2.64,3.18,5.39,5.36,7.51
				c1.87,1.81,4.58,3.32,6.45,5.37c2.94,3.24,4.74,8.56,8.75,10.9c1.9,1.12,4.89,1.96,7.67,1.84c3.13-0.13,6.13-1.97,8.75-2.61
				c2.98-0.71,5.5-0.6,6.74-2.45c0.9-1.3,1.11-4.59,0.62-6.14c-1.62-5.1-11.21-2.53-17.49-3.06c-4.36-0.38-6.6-0.14-7.21-4.14
				c-0.19-1.32-0.35-3.29,0.61-4c1.4-1.02,4.09-0.36,6.76-0.61c3.74-0.36,7.49-0.99,10.12-2.46c1.07-0.59,2.41-1.38,3.08-2.14
				c0.44-0.52,1.95-2.76,1.68-4c-0.45-2.08-8.06-3.2-11.35-2.61c-2.21,0.4-3.15,1.84-4.92,2c-2.66,0.22-5.37-1.6-8.74-0.46
				c-0.42,0.14-0.9,0.42-1.23,0.61c-2.11,1.2-2.63,4.16-4.61,4.76c-1.91,0.57-4.82-0.37-5.68-0.92c-1.86-1.2-4.61-8.06-1.99-10.44
				c0.54-0.48,1.2-0.43,1.7-1.22c1.01-1.62,1.25-5.04,2.91-6.29c0.96-0.73,2.91-0.6,4.44-1.38c1.02-0.52,2.65-2.2,3.07-3.54
				c0.38-1.2,0.61-3.52,0-4.6c-0.64-1.16-4.34-0.58-4.29-2.46c0.05-1.65,3.93-1.2,5.22-1.98c1.83-1.1,1.37-3.2,2.92-4.91
				c0.95-1.06,3.65-2.22,5.37-2.46c2.53-0.35,4.78,0.39,5.83-0.77c1.31-1.44,0.44-4.19-0.62-5.52c-1.23-1.52-3.32-2.03-3.84-3.53
				c-0.63-1.84-0.16-4.71-0.16-6.91c0-6.39-1.13-13.07-3.83-17.34c-0.6-0.93-1.58-1.68-2.61-2.45c-0.57-0.43-2.22-1.56-2.14-2.92
				c0.05-1.08,0.97-1.38,2.14-2.15c2.68-1.77,5.82-5.07,5.84-9.51c0-0.87-0.47-1.93-0.32-2.45c0.19-0.63,2.89-2.27,3.99-3.07
				c1.63-1.19,3.01-1.87,4.3-2.61c6.28-3.61,11.14-6.2,19.02-8.6c3.57-1.09,10.26-2.5,10.26-2.5c5.28,0,19.89,0,19.89,0l17.24,0.01
				v148.29H759.87V157.19z M853.59,175.17c-0.89,0.77-6,4.48-4.61,6.44c0.69,0.97,4.27-0.18,5.99-0.61
				c4.14-1.05,8.04-2.14,11.81-3.22c2.07-0.6,5.05-0.92,5.37-2.3c0.26-1.1-2.79-3.4-4.29-4.3c-1.79-1.08-4.03-1.85-5.68-1.69
				C858.45,169.87,856.25,172.85,853.59,175.17z M851.75,192.67c-0.86,1.99-2.39,2.53-2.61,4.6c-0.37,3.54,2.59,4.56,3.07,7.21
				c0.34,1.86-0.8,3.71-0.92,5.22c-0.57,7.28,8.78,10.72,10.44,14.27c0.23,0.51,0.49,1.17,0.45,1.84c-0.19,2.98-2.89,1.07-4.75,1.99
				c-1.25,0.62-1.14,2.12-2.31,4.14c-1.05,1.8-3.79,2.87-3.69,4.6c0.07,1.11,2.33,2.52,2.77,2.77c1.93,1.12,4.84,2.01,7.67,2.92
				c5.29,1.71,9.09,1.9,10.88,6.9c0.63,1.72,0.88,5.09,3.07,5.06c1.62-0.03,2.58-2.39,3.07-4.14c2.51-8.93,2.01-18.7,2.92-29.92
				c0.69-8.64,5.51-14.68,5.51-21.79c0-2.69-1.2-5.27-2.46-6.14c-2.91-2.02-9.82-1.6-13.65-0.61c-1.19,0.3-3.54,1.88-4.45,0.76
				c-0.87-1.08,1.47-2.6,0.46-3.37c-0.54-0.41-1.49,0.34-1.37,0.31c-0.91,0.26-2.13,0.51-3.22,0.3c-1.77-0.32-2.87-2.7-3.69-3.07
				c-1-0.44-4.68-0.1-4.92,0C852.32,187.3,852.62,190.63,851.75,192.67z M843.91,223.67c-0.84,1.44-2.07,4.37-1.07,5.82
				c1.06,1.53,5.21,1.03,6.91,0.15c4.27-2.19,4.02-10.11-0.77-9.97C846.54,219.74,845.1,221.64,843.91,223.67z M822.44,254.04
				c-1.24,1.09-3.12,4.34-0.45,3.07c1.15-0.55,2.72-1.83,3.68-1.99c3.22-0.57,4.72,1.69,7.66,0.92c1.21-0.32,1.95-1.57,3.07-2.14
				c0.56-0.29,1.28-0.6,2-0.77c1.21-0.29,4.88,0.14,5.21-0.77c0.38-1.02-2.45-1.75-3.21-2c-2.39-0.75-3.98-1.09-6.15-0.91
				C829.62,249.8,825.34,251.5,822.44,254.04z"/>
			<path class="st1" d="M800.05,181.57c3.34-0.42,7.56,0.52,10.13,1.85c2.26,1.15,3.98,2.74,3.98,5.98
				c0.01,1.16-0.21,2.67-0.15,4.14c0.07,1.43,0.41,2.94,0.15,3.99c-0.54,2.16-5.36,5.67-9.04,5.22c-2.5-0.3-4.22-3.15-5.98-3.22
				c-0.81-0.03-2.48,1.06-3.54,1.54c-0.81,0.36-3.17,1.3-3.68-0.16c-0.33-0.93,1.4-4.07,1.85-4.44c2.03-1.69,7.28-0.98,7.67-3.54
				c0.61-4.04-7.36-2.47-7.98-4.75c-0.4-1.48,1.55-2.18,2.45-3.22C797.34,183.3,797.38,181.92,800.05,181.57z"/>
			<path class="st1" d="M815.4,231.9c2.39-0.56,0.86,3.48,0.16,5.07c-0.67,1.5-1.41,2.97-2.46,3.06c-0.73,0.07-1.69-0.49-1.83-1.22
				C810.99,237.48,814.27,232.17,815.4,231.9z"/>
		</g>
	</g>
	<g>
		<g>
			<path d="M189.67,183.37c0,5.09-1.69,9.11-4.81,11.16c-1.77,1.15-3.47,1.52-7.12,1.52h-2.93V170.9c1.95-0.18,2.67-0.27,3.56-0.27
				C185.58,170.63,189.67,175.18,189.67,183.37z M201.81,182.94c0-7.13-4.46-13.02-11.24-14.71c-3.47-0.89-7.13-0.99-10.69-0.99
				c-5.17,0-3.56,0.27-8.82,0.1l-6.06-0.18c-2.68-0.09-5.53-0.17-8.31-0.17c-0.8,0-0.8,0-0.8,1.25c0,0.89,0.18,1.16,0.99,1.24
				c3.13,0.54,4.64,1.26,5.63,2.68c0.62,0.98,0.89,2.32,0.97,5.27c0,2.67,0.09,4.73,0.09,6.15v27.17c0,9.62-0.27,10.95-2.05,12.38
				c-1.07,0.8-2.15,1.15-4.64,1.61c-0.81,0.09-0.99,0.35-0.99,1.34c0,1.15,0,1.24,0.71,1.24c1.97,0,4.29-0.27,6.16-0.35
				c1.7-0.09,3.85-0.09,6.44-0.09c2.59,0,4.72,0,6.41,0.09c1.87,0.09,4.11,0.35,6.06,0.35c0.79,0,0.79-0.09,0.79-1.24
				c0-0.99-0.17-1.17-0.98-1.34c-3.11-0.54-4.72-1.26-5.6-2.59c-0.63-1.07-0.89-2.31-0.98-5.35c0-2.58-0.09-4.64-0.09-6.05v-11.32
				h4.18C193.25,199.41,201.81,193.19,201.81,182.94z"/>
			<path d="M256.43,224.1c-3.78,0.79-5.28,1.07-6.8,1.5c-0.44,0.09-7.06,2.13-8.04,2.13c-0.8,0-1.16-0.62-1.16-1.95
				c0-0.26,0-1.85,0.1-3.54c-2.77,2.3-4.11,3.1-6.17,4.07c-2.94,1.42-5.89,2.04-9.38,2.04c-8.94,0-12.69-4.6-13.32-13.16
				c-0.17-2.21-0.17-4.17-0.17-10.59v-7.13c0-1.6,0.35-5.88-1.24-6.87c-1.35-0.79-2.87-0.79-4.39-0.98
				c-0.99-0.08-1.16-0.26-1.16-1.33c0-0.99,0.17-1.25,1.26-1.43c3.75-0.8,5.26-1.16,6.78-1.6c0.27-0.09,7.32-2.15,8.04-2.15
				c0.82,0,1.16,0.62,1.16,2.06v5.52v15.23v5.79c0,4.18,0.64,6.32,2.15,7.94c1.51,1.59,3.92,2.48,6.79,2.48
				c2.59,0,5.45-0.71,7.6-2.23c1.61-1.16,1.88-2.04,1.96-4.73l0.1-4.36v-13.36l-0.1-1.96c-0.08-1.51,0.28-4.01-1.25-4.9
				c-0.63-0.35-1.6-0.71-3.3-0.88c-1.34-0.1-2.14,0.17-2.14-1.43c0-0.99,0.17-1.25,1.26-1.43c3.75-0.8,5.26-1.16,6.78-1.6
				c0.71-0.19,6.96-2.15,7.95-2.15c0.9,0,1.26,0.62,1.26,2.06v5.52c0,6.77-0.1,5.07-0.1,9.18v15.5c0,3.47,0.17,4.36,1.26,4.98
				c1.32,0.81,2.85,0.72,4.37,0.9c0.98,0.09,1.16,0.36,1.16,1.33C257.68,223.57,257.41,223.92,256.43,224.1z"/>
			<path d="M300.59,208.76c0,9.41-4.89,15.98-12.03,15.98c-4.28,0-8.01-2.23-8.9-5.15c-0.44-1.52-0.54-3.38-0.54-9.06v-19.8
				c2.84-2.14,4.8-2.85,7.48-2.85C294.8,187.89,300.59,196.68,300.59,208.76z M311.04,205.04c0-13.15-8.13-22.42-19.79-22.42
				c-4.1,0-6.77,0.8-10.15,2.96l-1.96,1.52v-9.66v-3.59v-11.27c0-1.43-0.36-2.06-1.16-2.06c-0.9,0-6.7,1.79-8.03,2.15
				c-1.53,0.45-3.04,0.8-6.79,1.61c-1.08,0.18-1.26,0.45-1.26,1.51c0,0.99,0.18,1.09,1.15,1.27c1.08,0.17,3.58,0.44,4.39,0.97
				c0.98,0.63,1.25,1.34,1.25,4.93v1.97v32.59c0,5.15,0,3.03-0.18,11.63c0,2.49-0.18,5.16-0.18,7.76v0.18
				c0,0.81,0.18,0.89,0.98,0.89c1.08,0,1.16,0,1.52-0.54c0.81-1.18,1.97-1.88,3.21-1.88c0.73,0,1.71,0.36,4.38,1.25
				c3.14,1.08,5.98,1.52,9.09,1.52C301.49,228.33,311.04,218.79,311.04,205.04z"/>
			<path d="M340.86,227.17c-3.57,0-7.43-0.27-11.1-0.35c-3.68-0.07-7.44,0.35-11.1,0.35c-0.88,0-0.98-0.18-0.98-1.16
				c0-1.06,0.18-1.34,1.16-1.43c2.41-0.35,3.93-0.89,4.63-1.61c1.36-1.33,1-5.61,1-7.13v-3.21v-37.78v-1.97c0-1.42,0.26-4-1.25-4.9
				c-0.8-0.54-3.4-0.81-4.38-0.98c-0.89-0.17-1.07-0.27-1.07-1.25c0-1.07,0.18-1.33,1.24-1.51c3.76-0.8,5.19-1.16,6.8-1.6
				c0.72-0.18,7-2.14,7.97-2.14c0.9,0,1.25,0.63,1.25,2.06c-0.08,6.59-0.08,3.83-0.08,14.69v35.38c0,3.84,0.08,2.42,0.08,7.4
				c0,3.66,2.41,4.1,5.63,4.55c0.88,0.08,1.16,0.36,1.16,1.43C341.84,226.99,341.65,227.17,340.86,227.17z"/>
			<path d="M361.68,177.44c-3.76,0-6.72-2.96-6.72-6.61c0-3.74,2.97-6.7,6.72-6.7c3.66,0,6.63,3.13,6.63,6.7
				C368.31,174.48,365.34,177.44,361.68,177.44z M373.13,227.17c-3.66,0-7.42-0.27-11.08-0.35c-3.68-0.07-7.43,0.35-11.09,0.35
				c-0.9,0-0.99-0.18-0.99-1.16c0-1.06,0.19-1.34,1.16-1.42c2.05-0.27,4.82-0.62,5.36-3.03c0.18-0.89,0.27-1.42,0.27-5.69v-3.21
				v-15.21v-1.95c0-1.42,0.19-4-1.24-4.89c-1.17-0.71-3.05-0.89-4.39-0.99c-0.89-0.08-1.07-0.27-1.07-1.32
				c0-0.98,0.18-1.25,1.25-1.43c3.75-0.8,5.18-1.16,6.8-1.61c2.49-0.61,6.98-2.14,7.97-2.14c0.89,0,1.25,0.62,1.25,2.06
				c-0.08,6.58-0.08,4.43-0.08,11.21v3.47v12.81l0.08,3.21v4.18c0,3.64,2.41,4.09,5.62,4.54c0.9,0.08,1.16,0.36,1.16,1.42
				C374.1,226.99,373.93,227.17,373.13,227.17z"/>
			<path d="M420.28,222.37c-4.73,3.55-10.38,5.59-15.45,5.59c-13.41,0-23.16-9.77-23.16-23.13c0-12.74,8.86-21.97,21.18-21.97
				c1.89,0,3.76,0.18,6.18,0.62c2.23,0.35,4.29,0.52,5.1,0.52c1.69,0,2.59-0.43,3.47-1.77c0.45-0.63,0.45-0.9,1.26-0.9
				c1.25,0,1.43,0.09,1.43,0.9c0,1.16-0.17,2.39-0.17,3.63c0,2.77,0.44,5.61,0.44,8.38c0,0.62-0.54,0.89-1.62,0.89
				c-0.44,0-0.6-0.18-0.97-0.72c-3.14-5.34-7.77-8.19-13.4-8.19c-8.12,0-12.68,5.16-12.68,14.15c0,12.65,6.97,21.64,16.8,21.64
				c4.18,0,9.02-1.78,11.87-4.1c0.35-0.36,0.81-0.53,0.99-0.53c0.54,0,1.43,1.7,1.43,2.13
				C422.95,220.06,421.88,221.13,420.28,222.37z"/>
			<path d="M519.16,227.3c-1.96,0-4.2-0.27-6.07-0.35c-1.71-0.09-3.85-0.09-6.43-0.09s-4.72,0-6.41,0.09
				c-1.88,0.09-4.19,0.35-6.14,0.35c-0.71,0-0.71-0.09-0.71-1.24c0-0.99,0.17-1.26,0.97-1.34c2.49-0.45,3.55-0.8,4.63-1.59
				c1.77-1.43,2.05-2.77,2.05-12.37v-13.7h-29.72v13.7c0,1.41,0.08,3.46,0.08,6.04c0.1,3.02,0.37,4.27,0.99,5.34
				c0.88,1.33,2.48,2.05,5.59,2.58c0.8,0.18,0.99,0.35,0.99,1.34c0,1.15,0,1.24-0.81,1.24c-1.87,0-4.1-0.27-6.05-0.35
				c-1.71-0.09-3.84-0.09-6.43-0.09c-2.58,0-4.72,0-6.42,0.09c-1.87,0.09-4.19,0.35-6.17,0.35c-0.71,0-0.71-0.09-0.71-1.24
				c0-0.99,0.18-1.26,0.98-1.34c2.49-0.45,3.57-0.8,4.65-1.59c1.77-1.43,2.04-2.77,2.04-12.37v-27.19c0-1.43-0.08-3.47-0.08-6.16
				c-0.09-2.94-0.36-4.28-0.98-5.27c-0.98-1.42-2.51-2.14-5.64-2.68c-0.81-0.08-0.98-0.35-0.98-1.24c0-1.25,0-1.25,0.71-1.25
				c2.08,0,4.12,0.17,6.17,0.26c1.71,0.1,3.84,0.18,6.42,0.18c2.59,0,4.72-0.08,6.43-0.18c2.04-0.08,3.99-0.26,6.05-0.26
				c0.81,0,0.81,0,0.81,1.25c0,0.89-0.19,1.16-0.99,1.24c-2.5,0.46-3.56,0.81-4.63,1.7c-1.77,1.43-2.04,2.67-2.04,12.4v9.9h29.72
				v-9.9c0-1.43-0.09-3.47-0.09-6.16c-0.09-2.94-0.35-4.28-0.99-5.27c-0.97-1.42-2.49-2.14-5.6-2.68c-0.81-0.08-0.97-0.35-0.97-1.24
				c0-1.25,0-1.25,0.71-1.25c1.96,0,4.26,0.17,6.14,0.26c1.69,0.1,3.83,0.18,6.41,0.18s4.72-0.08,6.43-0.18
				c1.96-0.08,4.11-0.26,6.07-0.26c0.81,0,0.81,0,0.81,1.25c0,0.89-0.19,1.16-0.98,1.24c-2.5,0.46-3.57,0.81-4.64,1.7
				c-1.78,1.43-2.07,2.67-2.07,12.4v27.19c0,1.41,0.1,3.46,0.1,6.04c0.09,3.02,0.35,4.27,0.98,5.34c0.9,1.33,2.5,2.05,5.63,2.58
				c0.79,0.18,0.98,0.35,0.98,1.34C519.97,227.21,519.97,227.3,519.16,227.3z"/>
			<path d="M554.43,197.98h-10.18h-9.02c0.19-2.23,0.27-2.95,0.54-4.03c1.16-4.56,3.75-7.61,8.75-7.61
				C549.98,186.34,553.72,190.64,554.43,197.98z M566.68,219.06c0-0.63-0.9-1.96-1.54-1.96c-0.24,0-0.61,0.27-0.96,0.53
				c-3.23,2.49-8.77,4.27-13.15,4.27c-8.91,0-15.26-8.17-15.61-20.17h2.95c8.3,0,16.61,0.18,24.93,0.18c1.68,0,2.31-0.44,2.31-1.57
				c0-2.09-1.42-6.38-2.95-8.89c-3.38-5.55-9.28-8.7-16.44-8.7c-12.04,0-21.36,9.68-21.36,22c0,12.88,10.21,23.33,22.98,23.33
				c6.7,0,12.15-2.33,17.94-7.69C566.41,219.86,566.68,219.41,566.68,219.06z"/>
			<path d="M597.43,212.71c0,3.81-0.09,4.35-0.54,5.59c-0.98,2.56-4.64,3.98-7.13,3.98c-3.63,0-6.04-2.57-6.04-6.31
				c0-3.01,1.33-5.41,3.92-6.83c1.98-1.07,4.89-2.31,9.79-3.99V212.71z M617.11,219.54c0-0.53-1.15-1.24-1.6-1.24
				c-0.11,0-0.37,0.26-0.65,0.61c-1.15,1.87-2.4,2.84-3.73,2.84c-1.26,0-2.34-0.88-2.7-2.21c-0.35-1.51-0.44-1.87-0.44-6.04
				l-0.09-13.66c-0.09-10.3-3.67-17.23-15.21-17.23c-4.72,0-9.07,1.69-12.38,4.89c-1.33,1.33-5.7,7.19-5.7,9.06
				c0,0.61,1.24,1.23,1.79,1.23c0.26,0,0.61-0.27,0.98-0.89c2.86-4.78,6.69-7.19,11.34-7.19c3,0,5.68,1.33,7.11,3.56
				c1.06,1.76,1.42,3.54,1.42,8.59l-2.59,0.89c-9.7,3.37-14.51,5.24-16.84,6.93c-3.12,2.21-4.82,5.23-4.82,8.52
				c0,5.87,4.73,10,11.61,10c5.07,0,9.43-2.07,13.17-6.19c0.99,2.6,1.89,3.77,3.58,4.84c1.45,0.9,3.33,1.43,5.1,1.43
				c3.86,0,7.52-2.33,9.31-5.82C615.96,222.2,617.11,220.07,617.11,219.54z"/>
			<path d="M645.5,227.17c-3.56,0-7.42-0.27-11.08-0.35c-3.67-0.07-7.44,0.35-11.09,0.35c-0.9,0-0.97-0.18-0.97-1.16
				c0-1.06,0.16-1.34,1.15-1.43c2.42-0.35,3.93-0.89,4.63-1.61c1.35-1.33,1-5.61,1-7.13v-3.21v-37.78v-1.97c0-1.42,0.26-4-1.27-4.9
				c-0.8-0.54-3.38-0.81-4.36-0.98c-0.89-0.17-1.07-0.27-1.07-1.25c0-1.07,0.18-1.33,1.25-1.51c3.75-0.8,5.18-1.16,6.78-1.6
				c0.72-0.18,7-2.14,7.98-2.14c0.9,0,1.26,0.63,1.26,2.06c-0.08,6.59-0.08,3.83-0.08,14.69v35.38c0,3.84,0.08,2.42,0.08,7.4
				c0,3.66,2.41,4.1,5.63,4.55c0.9,0.08,1.16,0.36,1.16,1.43C646.49,226.99,646.31,227.17,645.5,227.17z"/>
			<path d="M681.54,223.83c-3.74,2.94-7.58,4.38-11.51,4.38c-3.31,0-6.26-1.35-8.4-3.76c-2.33-2.59-2.94-5.16-2.94-12.37v-24.43
				h-4.55c-0.73,0-0.98-0.26-0.98-0.79c0-1.24,2.5-2.83,3.03-3.27l5.27-4.65c2.32-2.06,3.83-3.39,4.46-4.02
				c1.26-1.34,2.14-1.87,2.77-1.87c0.81,0,1.15,0.53,1.15,1.52c0,0.36,0.09-0.27-0.24,3.13c-0.2,1.53-0.2,2.94-0.37,6.07H677h2.67
				h0.18c1.43,0,1.17,1.14,1.17,2.29c0,1.41-0.18,1.58-1.17,1.58h-3.65h-7.07v19.64v4.71c0,5.15,0.27,6.31,1.26,7.82
				c0.99,1.34,2.6,2.22,4.47,2.22c1.97,0,4.36-0.88,5.97-2.04c0.92-0.81,1.25-0.99,1.62-0.99c0.6,0,1.51,1.42,1.51,1.96
				C683.97,221.5,682.9,222.75,681.54,223.83z"/>
			<path d="M743.08,227.17c-3.65,0-7.39-0.43-11.04-0.35c-3.46,0.09-7.11,0.35-10.58,0.35c-0.81,0-0.99-0.18-0.99-1.16
				c0-1.06,0.17-1.25,1.16-1.42c3.12-0.45,5.08-1.16,5.08-4.54c0-0.89,0.08-2.23,0.08-4.19v-3.21v-7.38v-6.14
				c0-6.32-1.96-10.33-8.72-10.33c-3.76,0-9.28,1.33-9.98,5.7c-0.18,1.33-0.28,2.22-0.28,5.79v12.36c0,3.83,0.1,2.4,0.1,7.39
				c0,3.48,2.05,4.09,5.16,4.54c0.89,0.08,1.08,0.36,1.08,1.42c0,0.97-0.1,1.16-0.91,1.16c-3.47,0-7.12-0.43-10.61-0.35
				c-3.66,0.09-7.42,0.35-11.07,0.35c-0.9,0-1-0.18-1-1.16c0-1.06,0.19-1.34,1.18-1.42c2.04-0.27,4.8-0.62,5.35-3.03
				c0.54-2.31,0.26-6.59,0.26-8.9v-37.75v-1.97c0-1.43,0.28-4.03-1.24-4.92c-0.8-0.54-3.38-0.8-4.37-0.98
				c-0.9-0.18-1.08-0.27-1.08-1.26c0-1.06,0.17-1.34,1.26-1.52c3.74-0.8,5.17-1.17,6.77-1.6c1.62-0.45,6.62-2.15,7.96-2.15
				c1.15,0,1.25,1.34,1.25,2.15c0,6.43-0.1,4.38-0.1,11.18v3.49v11.66c0.9-0.72,1.52-1.34,1.96-1.69c3.92-3.1,8.92-4.69,13.9-4.69
				c8.53,0,12.89,4.43,13.33,12.78c0.08,2.23,0.17,5.44,0.17,10.77v6.5c0,3.83,0.09,2.4,0.09,7.39c0,3.64,2.43,4.09,5.64,4.54
				c0.89,0.08,1.13,0.36,1.13,1.42C744.05,226.99,743.89,227.17,743.08,227.17z"/>
		</g>
	</g>
	<line class="st2" x1="154.48" y1="244.77" x2="743.77" y2="244.77"/>
</g>
</svg>
