<?xml version="1.0" encoding="UTF-8"?><svg id="Layer_1" xmlns="http://www.w3.org/2000/svg" viewBox="0 0 544.74 236.69"><defs><style>.cls-1{fill:#fff;}.cls-2{fill:#231f20;}.cls-3{fill:none;stroke:#231f20;}.cls-4{fill-rule:evenodd;}</style></defs><g><path class="cls-2" d="M77.13,153.67c-.79,0-1.63-.11-2.55-.29-.59-.14-1.11-.21-1.31-.21-.41,0-.58,.07-.81,.48-.13,.25-.21,.27-.48,.27-.21,0-.33-.08-.33-.27,0-.33,.06-.65,.08-.98l.06-1.19c.03-.72-.08-1.36-.08-2.07,0-.19,.05-.24,.22-.24,.4,0,.42,.02,.53,.33,.24,.76,.87,1.67,1.51,2.23,.64,.54,1.57,.86,2.62,.86,2.09,0,3.64-1.26,3.64-2.92,0-.59-.19-1.13-.52-1.57-.43-.54-.73-.74-3.22-2.39-3.17-2.07-4.38-3.68-4.38-5.77,0-2.88,2.08-4.96,4.95-4.96,.76,0,1.62,.16,2.61,.43,.24,.08,.43,.11,.57,.11,.24,0,.37-.09,.53-.33,.11-.16,.22-.32,.44-.32,.43,0,.49,.05,.49,.45,0,.16,0,.33-.03,.51-.05,.4-.08,.99-.08,1.45,0,.4,.05,.75,.05,1.13,0,.24-.08,.29-.41,.29-.19,0-.24-.02-.32-.22-.48-.99-.76-1.37-1.3-1.77-.62-.43-1.47-.7-2.27-.7-1.58,0-2.75,.97-2.75,2.29s.97,2.42,4.1,4.5c1.09,.72,1.95,1.37,2.58,1.93,1.03,.95,1.68,2.37,1.68,3.71,0,2.96-2.52,5.23-5.8,5.23Z"/><path class="cls-2" d="M95.16,144.55h-5.8c.05-.66,.08-.88,.16-1.19,.35-1.35,1.13-2.26,2.65-2.26,1.64,0,2.78,1.28,2.99,3.46Zm3.71,6.4c0-.19-.27-.6-.46-.6-.08,0-.19,.09-.3,.16-.97,.76-2.65,1.3-3.97,1.3-2.7,0-4.62-2.5-4.73-6.14h.89c2.51,0,5.02,.07,7.53,.07,.51,0,.7-.14,.7-.49,0-.63-.43-1.9-.89-2.66-1.03-1.64-2.81-2.59-4.97-2.59-3.65,0-6.48,2.89-6.48,6.59,0,3.91,3.1,7.08,6.96,7.08,2.03,0,3.67-.71,5.43-2.32,.19-.17,.27-.3,.27-.41Z"/><path class="cls-2" d="M109.23,149.04c0,1.15-.03,1.31-.16,1.69-.3,.78-1.41,1.21-2.15,1.21-1.11,0-1.84-.78-1.84-1.91,0-.92,.41-1.63,1.19-2.06,.59-.32,1.48-.71,2.96-1.22v2.29Zm5.96,2.07c0-.16-.36-.37-.49-.37-.03,0-.1,.07-.19,.19-.35,.56-.72,.86-1.13,.86s-.71-.27-.82-.67c-.11-.46-.13-.56-.13-1.83l-.03-4.13c-.03-3.12-1.11-5.22-4.59-5.22-1.43,0-2.74,.5-3.75,1.48-.4,.4-1.73,2.17-1.73,2.74,0,.19,.38,.38,.54,.38,.08,0,.19-.08,.29-.27,.86-1.45,2.03-2.18,3.43-2.18,.91,0,1.72,.41,2.16,1.08,.32,.53,.42,1.08,.42,2.6l-.77,.27c-2.94,1.02-4.4,1.59-5.1,2.1-.95,.67-1.45,1.59-1.45,2.58,0,1.77,1.43,3.02,3.5,3.02,1.54,0,2.85-.62,3.99-1.86,.3,.78,.57,1.12,1.09,1.46,.43,.27,1.01,.44,1.55,.44,1.17,0,2.27-.71,2.8-1.76,.05-.09,.41-.73,.41-.88Z"/><path class="cls-2" d="M126.14,152.4c-1.14,.88-2.3,1.32-3.49,1.32-1,0-1.9-.4-2.54-1.14-.7-.78-.89-1.56-.89-3.73v-7.39h-1.38c-.21,0-.3-.08-.3-.25,0-.37,.77-.85,.93-.98l1.58-1.4c.7-.63,1.16-1.03,1.36-1.21,.38-.41,.65-.57,.84-.57,.24,0,.35,.16,.35,.46,0,.11,.03-.08-.08,.95-.05,.46-.05,.88-.11,1.84h3.22c.43,0,.35,.35,.35,.7,0,.43-.05,.48-.35,.48h-3.25v7.35c0,1.56,.09,1.92,.39,2.37,.29,.41,.79,.68,1.35,.68s1.32-.27,1.81-.63c.27-.24,.37-.28,.49-.28,.18,0,.45,.43,.45,.59s-.33,.54-.73,.87Z"/><path class="cls-2" d="M138.59,152.4c-1.14,.88-2.3,1.32-3.48,1.32-1,0-1.89-.4-2.54-1.14-.7-.78-.89-1.56-.89-3.73v-7.39h-1.38c-.22,0-.3-.08-.3-.25,0-.37,.76-.85,.93-.98l1.59-1.4c.7-.63,1.17-1.03,1.35-1.21,.38-.41,.65-.57,.84-.57,.24,0,.35,.16,.35,.46,0,.11,.03-.08-.08,.95-.05,.46-.05,.88-.1,1.84h3.21c.43,0,.35,.35,.35,.7,0,.43-.05,.48-.35,.48h-3.25v7.35c0,1.56,.09,1.92,.38,2.37,.3,.41,.78,.68,1.36,.68s1.31-.27,1.8-.63c.27-.24,.37-.28,.49-.28,.18,0,.46,.43,.46,.59s-.32,.54-.73,.87Z"/><path class="cls-2" d="M149.39,153.39c-1.08,0-2.24-.08-3.36-.11-1.11-.03-2.24,.11-3.34,.11-.27,0-.3-.05-.3-.34,0-.32,.06-.4,.36-.43,.72-.11,1.18-.28,1.39-.5,.41-.4,.31-1.7,.31-2.15v-13c0-.43,.08-1.22-.38-1.49-.24-.16-1.03-.24-1.32-.29-.28-.05-.33-.08-.33-.38,0-.32,.04-.41,.37-.46,1.13-.23,1.56-.35,2.05-.48,.21-.05,2.12-.64,2.41-.64s.39,.18,.39,.62c-.03,2-.03,1.16-.03,4.45v10.71c0,1.16,.03,.73,.03,2.24,0,1.1,.72,1.24,1.7,1.38,.27,.03,.35,.11,.35,.43,0,.29-.05,.34-.3,.34Z"/><path class="cls-2" d="M162.04,144.55h-5.81c.05-.66,.09-.88,.16-1.19,.36-1.35,1.14-2.26,2.65-2.26,1.64,0,2.78,1.28,3,3.46Zm3.69,6.4c0-.19-.26-.6-.46-.6-.07,0-.19,.09-.29,.16-.98,.76-2.65,1.3-3.97,1.3-2.7,0-4.62-2.5-4.73-6.14h.89c2.52,0,5.03,.07,7.54,.07,.52,0,.69-.14,.69-.49,0-.63-.42-1.9-.88-2.66-1.02-1.64-2.81-2.59-4.97-2.59-3.64,0-6.47,2.89-6.47,6.59,0,3.91,3.09,7.08,6.95,7.08,2.02,0,3.67-.71,5.43-2.32,.19-.17,.26-.3,.26-.41Z"/><path class="cls-2" d="M188.14,138.31c0,.88-.3,1.83-.83,2.5-.41,.51-.74,.75-1.65,1.27-1.03-1.11-1.25-1.35-1.65-1.97-.39-.57-.6-1.16-.6-1.75,0-1.45,1.14-2.67,2.52-2.67s2.22,1.09,2.22,2.62Zm8.22,13.33c0-.18-.24-.59-.45-.59-.06,0-.14,.02-.24,.1-.66,.38-1.54,.7-1.98,.7-.29,0-.59-.13-.83-.4-.3-.33-.46-.49-1.33-1.98l-.37-.65c.76-1.4,1.06-1.99,1.46-3.07,.37-1,.64-1.43,1.05-1.67,.4-.24,1.03-.36,1.86-.36,.49,0,.57-.05,.57-.47,0-.37-.08-.45-.33-.45-1.1,0-2.35,.08-3.42,.11-.73,.03-1.5-.05-2.25-.05-.37,0-.43,.05-.43,.4s.02,.47,.4,.47c.98,.03,1.41,.44,1.41,1.3,0,.7-.25,1.38-1,2.97-.7-.97-.96-1.32-1.43-1.92-.62-.81-.86-1.1-2.22-2.67l-.57-.64c.84-.29,1.18-.43,1.73-.72,1.34-.75,2.45-1.91,2.45-3.58,0-2.15-1.85-3.67-4.51-3.67-3.11,0-5.43,1.81-5.43,4.25,0,.76,.21,1.46,.65,2.16,.46,.76,.76,1.13,1.81,2.23-3.1,1.07-4.69,2.88-4.69,5.23,0,2.86,2.63,5.16,5.88,5.16,2.27,0,3.66-.94,5.11-2.5,.51,.76,.7,1.06,.91,1.48,.44,.78,.52,.91,.79,1.08,.29,.19,.86,0,1.16-.11,.76-.27,2.38-1.02,3.64-1.67,.43-.24,.59-.34,.59-.48Zm-7.69-1.13c-.94,1.04-1.83,1.84-3.32,1.84-2.02,0-3.94-2.21-3.94-4.56,0-1.81,.7-2.72,2.13-3.64,.87,.92,1.19,1.31,2.05,2.34,.49,.56,.98,1.18,1.49,1.83,.81,1,1.01,1.27,1.59,2.19Z"/><path class="cls-2" d="M225.35,153.43c-.05,0,.19-.03-1.35-.06l-1.35-.03c-.62,0-1.19,.03-1.7,.06-.57,.03-.9-.04-1.24-.51l-.86-1.18-5.7-7.53v4.24c0,.42,.04,1.05,.04,1.83,.02,.92,.11,1.31,.29,1.63,.27,.4,.76,.61,1.7,.78,.25,.05,.3,.11,.3,.41,0,.34,0,.36-.25,.36-.59,0-1.27-.09-1.83-.11-.52-.03-1.16-.03-1.95-.03s-1.43,0-1.95,.03c-.56,.02-1.26,.11-1.86,.11-.22,0-.22-.03-.22-.36,0-.3,.05-.39,.3-.41,.75-.13,1.07-.25,1.4-.49,.55-.42,.62-.84,.62-3.75v-8.24c0-.43-.03-1.05-.03-1.86-.03-.89-.11-1.29-.29-1.58-.3-.44-.76-.66-1.7-.81-.25-.03-.3-.11-.3-.38q0-.38,.22-.38c.6,0,1.3,.05,1.86,.08,.52,.02,1.16,.06,1.95,.06s1.43-.03,1.95-.06c.59-.03,1.23-.08,1.83-.08q.25,0,.25,.38c0,.27-.05,.35-.3,.38-.75,.14-1.07,.23-1.4,.51-.54,.43-.62,.8-.62,3.75v3.25l4.56-4.89c1.09-1.13,1.36-1.56,1.36-1.89,0-.35-.3-.59-.9-.67-.29-.03-.34-.11-.34-.38,0-.35,.03-.43,.24-.43,.33,0,.62,.02,.94,.02l1.58,.03,2.01-.05h.54c.24,0,.24,.02,.24,.34,0,.44-.05,.52-.53,.55-.62,.05-1.1,.18-1.51,.48-.28,.2-.55,.44-.84,.73-.19,.22-.57,.62-1.14,1.24l-3.56,3.81,5.82,7.46,.41,.47,.92,1.12c.59,.69,1.32,1.1,2.38,1.31,.26,.06,.33,.11,.33,.36,0,.31-.06,.39-.3,.39Z"/><path class="cls-2" d="M231.92,138.33c-1.14,0-2.03-.89-2.03-1.99s.89-2.02,2.03-2.02,2,.94,2,2.02-.89,1.99-2,1.99Zm3.46,15.06c-1.11,0-2.24-.08-3.35-.11-1.11-.03-2.25,.11-3.36,.11-.27,0-.29-.05-.29-.34,0-.32,.05-.4,.35-.43,.62-.09,1.44-.2,1.61-.93,.06-.26,.09-.42,.09-1.71v-6.17c0-.42,.05-1.2-.38-1.47-.36-.22-.92-.26-1.32-.3-.28-.02-.33-.07-.33-.4,0-.29,.05-.38,.38-.44,1.13-.24,1.56-.35,2.05-.48,.76-.19,2.12-.65,2.41-.65,.27,0,.38,.19,.38,.63-.03,1.99-.03,1.34-.03,3.39v4.92l.03,.96v1.27c0,1.1,.73,1.24,1.7,1.37,.27,.03,.35,.11,.35,.43,0,.29-.05,.34-.3,.34Z"/><path class="cls-2" d="M255.19,153.39c-1.11,0-2.24-.08-3.34-.11-1.06-.03-2.16,.11-3.22,.11-.24,0-.3-.05-.3-.34,0-.32,.05-.38,.35-.43,.6-.09,1.34-.21,1.48-.93,.1-.53,.07-1.17,.07-1.71v-5.04c0-1.91-.58-3.12-2.62-3.12-.77,0-1.47,.16-2.07,.49-.56,.33-.83,.67-.93,1.23-.05,.4-.08,.67-.08,1.75v3.73c0,1.15,.03,.72,.03,2.23,0,1.04,.61,1.24,1.56,1.37,.27,.03,.32,.11,.32,.43,0,.29-.03,.34-.28,.34-1.05,0-2.15-.13-3.2-.11-1.11,.03-2.27,.11-3.36,.11-.26,0-.29-.05-.29-.34,0-.32,.06-.4,.35-.43,.62-.09,1.46-.2,1.63-.93,.06-.26,.08-.41,.08-1.71v-6.14c0-1.05-.05-1.29-.37-1.48-.2-.14-.46-.22-1-.27-.41-.03-.65,.05-.65-.44,0-.29,.06-.38,.38-.43,1.13-.24,1.59-.35,2.05-.49,.47-.14,2.03-.65,2.41-.65,.27,0,.38,.18,.38,.62,0,.08,0,.59-.03,1.17,.27-.22,.45-.41,.58-.51,1.19-.96,2.68-1.44,4.19-1.44,2.59,0,3.92,1.35,4.06,3.88,.02,.67,.05,1.64,.05,3.25v1.96c0,1.15,.03,.72,.03,2.23,0,.43,.1,.7,.26,.88,.22,.23,.68,.38,1.44,.5,.27,.03,.35,.11,.35,.43,0,.29-.05,.34-.3,.34Z"/><path class="cls-2" d="M267.89,145.18c0,1.64-.97,2.83-2.48,2.83-2.18,0-3.41-2.48-3.41-4.37,0-1.66,1.03-2.83,2.53-2.83,1.79,0,3.36,2.05,3.36,4.37Zm4.24-4.17c0-.59-.06-.68-.47-.68-.37,0-.75,.03-1.13,.03-1.99,0-2.29,0-3.84-.3-.95-.15-1.65-.27-2.11-.27-3.14,0-5.64,2.17-5.64,4.94,0,2.04,1.28,3.64,3.17,3.98,.21,.03,.36,.12,.36,.17,0,.08-.08,.14-.36,.2-1.24,.28-2.38,1.51-2.38,2.55,0,.76,.57,1.57,1.3,1.81,.33,.1,.44,.17,.44,.25s-.13,.16-.33,.19c-1.52,.32-2.68,1.57-2.68,2.89,0,2.34,2.79,4.23,6.32,4.23,3.92,0,6.83-2.13,6.83-4.99,0-2.54-2.06-3.46-4.15-3.99-1.14-.3-2.24-.55-3.33-.75-1.22-.21-1.62-.46-1.62-.91,0-.54,.47-.81,1.62-1.08l2.41-.54c2.94-.64,4.35-2.04,4.35-4.36,0-1.15-.41-2.02-1.35-2.93l.53,.03c.57,.02,1.11,.08,1.67,.08,.29,0,.38-.11,.38-.57Zm-2.91,16.02c0,1.62-1.78,2.95-3.97,2.95s-4.31-1.89-4.31-3.86c0-1.24,1.14-1.87,3.44-1.87,2.93,0,4.85,1.12,4.85,2.79Z"/><path class="cls-2" d="M299.69,151.54c-1.87,1.32-4.37,2.13-6.59,2.13-5.46,0-9.71-4.01-9.71-9.2s4.06-9.46,8.93-9.46c1.02,0,1.7,.14,3.45,.61,.88,.25,1.18,.3,1.53,.3,.52,0,.77-.14,1.16-.79,.09-.14,.13-.17,.3-.17,.46,0,.51,.05,.51,.4,0,.98-.07,2.01-.07,3,0,.49,.05,.96,.05,1.43,0,.27-.1,.34-.43,.34-.11,0-.18-.03-.24-.06-.08-.02-.12-.07-.49-.69-.38-.67-.69-1.1-1.13-1.53-1.11-1.14-2.54-1.75-4.11-1.75-3.41,0-5.71,3.04-5.71,7.53,0,4.97,2.9,8.55,6.97,8.55,1.66,0,3.79-.65,5.13-1.54,.09-.05,.16-.08,.22-.08,.19,0,.44,.51,.44,.67,0,.11-.06,.18-.22,.3Z"/><path class="cls-2" d="M313.28,148.14c0,2.74-1.27,4.44-3.35,4.44-2.61,0-4.78-3.25-4.78-7.17,0-2.58,1.32-4.27,3.35-4.27,2.54,0,4.78,3.27,4.78,7Zm3.2-1.33c0-3.9-3.11-6.88-7.19-6.88s-7.4,3.1-7.4,6.96,3.24,6.84,7.4,6.84,7.19-3.05,7.19-6.91Z"/><path class="cls-2" d="M335,152.45c-1.14,.24-1.6,.33-2.06,.46-.14,.04-2.13,.65-2.43,.65-.24,0-.34-.18-.34-.59,0-.08,0-.57,.02-1.09-.83,.7-1.25,.95-1.87,1.25-.89,.43-1.79,.62-2.85,.62-2.7,0-3.83-1.41-4.03-3.99-.05-.67-.05-1.27-.05-3.2v-2.15c0-.49,.1-1.78-.38-2.08-.4-.24-.87-.24-1.32-.29-.3-.02-.35-.08-.35-.4,0-.3,.05-.38,.37-.43,1.14-.24,1.59-.35,2.06-.48,.08-.03,2.21-.65,2.43-.65,.25,0,.34,.19,.34,.62v8.01c0,1.26,.19,1.92,.65,2.4,.46,.48,1.19,.75,2.05,.75,.79,0,1.66-.22,2.31-.67,.48-.36,.57-.62,.6-1.43l.02-1.32v-4.02l-.02-.6c-.03-.45,.08-1.2-.39-1.48-.19-.1-.49-.21-1-.27-.41-.03-.65,.05-.65-.43,0-.3,.06-.38,.38-.43,1.13-.24,1.59-.35,2.05-.48,.22-.06,2.11-.65,2.41-.65,.27,0,.38,.19,.38,.62v1.67c0,2.05-.03,1.53-.03,2.77v4.67c0,1.06,.06,1.33,.38,1.51,.41,.24,.87,.21,1.33,.26,.29,.03,.35,.11,.35,.41s-.08,.41-.37,.46Z"/><path class="cls-2" d="M354.24,153.39c-1.11,0-2.24-.08-3.36-.11-1.06-.03-2.16,.11-3.21,.11-.24,0-.29-.05-.29-.34,0-.32,.05-.38,.35-.43,.6-.09,1.35-.21,1.48-.93,.11-.53,.08-1.17,.08-1.71v-5.04c0-1.91-.59-3.12-2.63-3.12-.78,0-1.48,.16-2.07,.49-.56,.33-.83,.67-.94,1.23-.06,.4-.08,.67-.08,1.75v3.73c0,1.15,.02,.72,.02,2.23,0,1.04,.63,1.24,1.57,1.37,.26,.03,.32,.11,.32,.43,0,.29-.03,.34-.28,.34-1.04,0-2.15-.13-3.2-.11-1.12,.03-2.27,.11-3.35,.11-.27,0-.3-.05-.3-.34,0-.32,.05-.4,.35-.43,.63-.09,1.46-.2,1.63-.93,.04-.26,.07-.41,.07-1.71v-6.14c0-1.05-.05-1.29-.38-1.48-.18-.14-.45-.22-.99-.27-.4-.03-.65,.05-.65-.44,0-.29,.06-.38,.39-.43,1.13-.24,1.58-.35,2.05-.49,.46-.14,2.03-.65,2.41-.65,.27,0,.37,.18,.37,.62,0,.08,0,.59-.02,1.17,.26-.22,.45-.41,.59-.51,1.19-.96,2.68-1.44,4.18-1.44,2.59,0,3.93,1.35,4.06,3.88,.02,.67,.04,1.64,.04,3.25v1.96c0,1.15,.03,.72,.03,2.23,0,.43,.11,.7,.28,.88,.22,.23,.67,.38,1.43,.5,.27,.03,.34,.11,.34,.43,0,.29-.05,.34-.3,.34Z"/><path class="cls-2" d="M365.71,152.4c-1.13,.88-2.3,1.32-3.49,1.32-1,0-1.89-.4-2.53-1.14-.7-.78-.89-1.56-.89-3.73v-7.39h-1.38c-.21,0-.3-.08-.3-.25,0-.37,.75-.85,.92-.98l1.59-1.4c.7-.63,1.16-1.03,1.36-1.21,.37-.41,.65-.57,.82-.57,.26,0,.36,.16,.36,.46,0,.11,.03-.08-.07,.95-.06,.46-.06,.88-.12,1.84h3.22c.42,0,.35,.35,.35,.7,0,.43-.06,.48-.35,.48h-3.24v7.35c0,1.56,.08,1.92,.37,2.37,.3,.41,.79,.68,1.35,.68,.61,0,1.33-.27,1.81-.63,.27-.24,.39-.28,.49-.28,.19,0,.47,.43,.47,.59s-.32,.54-.73,.87Z"/><path class="cls-2" d="M382.56,141.23c-.52,.16-.87,.46-1.22,.99-.4,.65-.75,1.38-1.74,3.63l-1.91,4.29c-1.37,3.07-2.3,5.23-2.82,6.47-.57,1.35-1.07,2.59-1.41,3.59-.37,1.08-.43,1.55-1.73,1.55-.26,0-.51-.03-.78-.03-.19,0-.46,0-.46-.24,0-.18,.13-.43,.89-1.75,.71-1.23,1.41-2.48,2.11-3.72,.99-1.73,1.24-2.21,1.41-2.64,.11-.24,.13-.48,.13-.64,0-.23-.18-.81-.45-1.44-.84-1.99-.64-1.48-1.16-2.72-.65-1.51-1.3-3.05-2.01-4.56-.35-.76-.7-1.51-1.16-2.21-.24-.38-.48-.49-1.24-.6-.28-.05-.36-.15-.36-.54,0-.29,.06-.35,.44-.35,1,0,2.03,.09,3.06,.09,.92,0,1.92-.09,2.87-.09,.21,0,.29,.09,.29,.43,0,.25-.05,.31-.32,.36-.73,.19-.97,.41-.97,.72,0,.46,1.02,2.7,1.21,3.13l1.79,4.15,.87-1.93c1.1-2.49,.78-1.84,1.44-3.48,.41-.97,.54-1.41,.54-1.76,0-.32-.24-.56-.54-.69-.26-.11-.72-.08-.72-.46,0-.4,.06-.46,.44-.46,.64,0,1.27,.06,1.91,.06s1.35-.08,1.99-.08c.28,0,.37,.08,.37,.4,0,.46-.33,.41-.74,.54Z"/></g><g><rect class="cls-1" x="389.96" y="74.94" width="86" height="86"/><g><path class="cls-4" d="M392.95,78.11h12.44c-.03,5.3,.52,9.84,.93,14.56,.08,.85,.19,1.65,.17,2.47-.03,.79-.25,1.56-.25,2.38,0,1.6,.85,2.66,1.07,4.03,.34,2.15,.11,4.42,.25,6.57,.26,4.18,1.69,7.54,2.96,10.84,.66,1.74,.98,3.55,1.48,5.43,.48,1.84,1.02,3.56,1.73,5.18,1.28,2.95,3.38,5.93,5.18,8.63,.94,1.41,1.71,2.89,2.87,4.02,1,.97,2.45,1.78,3.45,2.87,1.58,1.73,2.54,4.58,4.69,5.84,1.02,.6,2.62,1.05,4.1,.99,1.68-.07,3.28-1.06,4.68-1.4,1.6-.38,2.94-.32,3.61-1.31,.48-.7,.6-2.46,.33-3.29-.87-2.73-6-1.35-9.37-1.64-2.34-.2-3.53-.07-3.86-2.22-.1-.71-.19-1.76,.33-2.14,.75-.54,2.19-.19,3.62-.33,2-.19,4.01-.53,5.42-1.32,.58-.32,1.29-.74,1.65-1.15,.24-.28,1.04-1.48,.9-2.14-.24-1.12-4.31-1.71-6.08-1.4-1.19,.22-1.68,.99-2.63,1.07-1.43,.12-2.88-.86-4.68-.25-.23,.07-.48,.23-.66,.33-1.13,.64-1.41,2.23-2.47,2.55-1.02,.3-2.58-.2-3.04-.49-1-.64-2.47-4.31-1.07-5.59,.29-.26,.64-.23,.91-.65,.54-.87,.67-2.7,1.56-3.37,.51-.39,1.56-.32,2.38-.74,.54-.28,1.42-1.18,1.64-1.89,.2-.64,.33-1.88,0-2.46-.34-.62-2.32-.31-2.3-1.32,.03-.88,2.1-.64,2.79-1.06,.98-.59,.73-1.71,1.57-2.63,.51-.57,1.96-1.19,2.87-1.32,1.36-.19,2.56,.21,3.12-.41,.7-.77,.24-2.24-.33-2.96-.66-.81-1.78-1.09-2.05-1.89-.34-.98-.08-2.52-.08-3.7,0-3.42-.61-7-2.05-9.28-.32-.5-.85-.9-1.4-1.31-.3-.23-1.19-.84-1.15-1.56,.03-.58,.52-.74,1.15-1.15,1.44-.95,3.12-2.71,3.13-5.09,0-.46-.25-1.03-.17-1.31,.1-.34,1.55-1.22,2.14-1.64,.87-.63,1.61-1,2.3-1.4,3.36-1.93,5.96-3.32,10.19-4.6,1.91-.58,5.5-1.34,5.5-1.34h19.88v79.41h-79.34V78.11Zm50.18,9.63c-.48,.41-3.21,2.4-2.47,3.45,.37,.52,2.29-.1,3.2-.33,2.22-.56,4.31-1.14,6.32-1.72,1.11-.32,2.71-.49,2.88-1.23,.14-.59-1.5-1.82-2.3-2.3-.96-.58-2.16-.99-3.04-.9-2,.2-3.17,1.79-4.6,3.04Zm-.99,9.37c-.46,1.06-1.28,1.35-1.4,2.46-.2,1.9,1.39,2.44,1.64,3.86,.18,1-.43,1.99-.5,2.79-.31,3.9,4.7,5.74,5.59,7.64,.12,.27,.26,.63,.24,.99-.1,1.6-1.54,.57-2.54,1.07-.67,.33-.61,1.14-1.23,2.22-.56,.96-2.03,1.54-1.97,2.46,.04,.59,1.25,1.35,1.48,1.48,1.03,.6,2.59,1.08,4.11,1.56,2.83,.91,4.87,1.02,5.83,3.7,.34,.92,.47,2.73,1.65,2.71,.87-.01,1.38-1.28,1.64-2.22,1.35-4.78,1.07-10.02,1.57-16.02,.37-4.63,2.95-7.86,2.95-11.67,0-1.44-.64-2.82-1.32-3.29-1.56-1.08-5.26-.85-7.31-.33-.63,.16-1.89,1.01-2.38,.41-.47-.58,.79-1.39,.25-1.81-.29-.22-.8,.18-.74,.16-.49,.14-1.14,.27-1.73,.16-.95-.17-1.54-1.45-1.97-1.64-.53-.24-2.5-.06-2.63,0-.92,.41-.76,2.19-1.23,3.29Zm-4.2,16.6c-.45,.77-1.11,2.34-.57,3.12,.57,.82,2.79,.55,3.7,.08,2.28-1.17,2.15-5.41-.41-5.34-1.31,.04-2.08,1.06-2.72,2.14Zm-11.5,16.26c-.66,.58-1.67,2.33-.24,1.65,.61-.29,1.45-.98,1.97-1.07,1.72-.31,2.53,.9,4.1,.49,.65-.17,1.04-.84,1.64-1.15,.3-.15,.69-.32,1.07-.41,.65-.16,2.62,.07,2.79-.41,.2-.55-1.31-.94-1.72-1.07-1.28-.4-2.13-.58-3.29-.49-2.48,.19-4.77,1.1-6.32,2.46Z"/><path class="cls-4" d="M414.46,91.17c1.79-.23,4.05,.28,5.43,.99,1.21,.62,2.13,1.47,2.13,3.2,0,.62-.11,1.43-.08,2.22,.04,.76,.22,1.57,.08,2.13-.29,1.16-2.87,3.04-4.84,2.79-1.34-.16-2.26-1.69-3.2-1.73-.43-.02-1.33,.57-1.89,.82-.43,.2-1.7,.7-1.97-.08-.18-.5,.75-2.18,.99-2.38,1.09-.91,3.9-.53,4.11-1.89,.33-2.17-3.94-1.32-4.27-2.55-.21-.79,.83-1.17,1.31-1.73,.76-.88,.78-1.62,2.22-1.81Z"/><path class="cls-4" d="M422.68,118.12c1.28-.3,.46,1.87,.08,2.71-.36,.8-.75,1.59-1.32,1.64-.39,.04-.9-.26-.98-.65-.14-.71,1.61-3.56,2.22-3.7Z"/></g></g><g><path class="cls-2" d="M87.62,92.13c0,2.73-.9,4.88-2.58,5.97-.95,.62-1.86,.81-3.81,.81h-1.57v-13.47c1.04-.1,1.43-.14,1.9-.14,3.86,0,6.05,2.44,6.05,6.82Zm6.5-.23c0-3.82-2.39-6.97-6.02-7.88-1.86-.48-3.82-.53-5.72-.53-2.77,0-1.91,.14-4.72,.05l-3.25-.1c-1.43-.05-2.96-.09-4.45-.09q-.43,0-.43,.67c0,.47,.1,.62,.53,.66,1.68,.29,2.48,.67,3.01,1.44,.33,.53,.48,1.24,.52,2.82,0,1.43,.05,2.53,.05,3.29v14.55c0,5.15-.14,5.87-1.1,6.63-.57,.43-1.15,.62-2.48,.86-.43,.05-.53,.19-.53,.72,0,.62,0,.66,.38,.66,1.05,0,2.3-.14,3.3-.19,.91-.05,2.06-.05,3.45-.05s2.53,0,3.43,.05c1,.05,2.2,.19,3.25,.19,.43,0,.43-.05,.43-.66,0-.53-.09-.63-.52-.72-1.67-.29-2.53-.68-3-1.39-.34-.57-.48-1.24-.52-2.87,0-1.38-.05-2.48-.05-3.24v-6.06h2.24c7.63,0,12.22-3.33,12.22-8.82Z"/><path class="cls-2" d="M123.37,113.94c-2.02,.42-2.83,.57-3.64,.8-.24,.05-3.78,1.14-4.3,1.14-.43,0-.62-.33-.62-1.05,0-.14,0-.99,.05-1.89-1.48,1.23-2.2,1.66-3.3,2.18-1.58,.76-3.16,1.09-5.02,1.09-4.79,0-6.8-2.46-7.13-7.04-.09-1.19-.09-2.23-.09-5.67v-3.82c0-.86,.19-3.15-.66-3.68-.72-.42-1.54-.42-2.35-.53-.53-.04-.62-.14-.62-.71,0-.53,.09-.67,.67-.76,2.01-.43,2.82-.62,3.63-.86,.15-.05,3.92-1.15,4.3-1.15,.44,0,.62,.33,.62,1.1v14.21c0,2.24,.34,3.38,1.15,4.25,.81,.85,2.1,1.33,3.63,1.33,1.39,0,2.92-.38,4.07-1.19,.86-.62,1.01-1.09,1.05-2.53l.05-2.33v-7.15l-.05-1.05c-.04-.81,.15-2.15-.67-2.63-.34-.19-.86-.38-1.77-.47-.72-.05-1.14,.09-1.14-.76,0-.53,.09-.67,.67-.76,2.01-.43,2.81-.62,3.63-.86,.38-.1,3.72-1.15,4.25-1.15,.48,0,.68,.33,.68,1.1v2.96c0,3.62-.05,2.72-.05,4.91v8.3c0,1.86,.09,2.34,.67,2.67,.71,.43,1.53,.39,2.34,.48,.52,.05,.62,.19,.62,.71s-.14,.71-.66,.81Z"/><path class="cls-2" d="M147.02,105.73c0,5.04-2.62,8.56-6.44,8.56-2.29,0-4.29-1.19-4.77-2.76-.24-.81-.29-1.81-.29-4.85v-10.6c1.52-1.15,2.57-1.53,4-1.53,4.39,0,7.49,4.7,7.49,11.18Zm5.59-2c0-7.04-4.35-12.01-10.6-12.01-2.2,0-3.62,.43-5.44,1.58l-1.05,.81v-13.13c0-.77-.19-1.1-.62-1.1-.48,0-3.59,.96-4.3,1.15-.82,.24-1.63,.43-3.64,.86-.58,.1-.67,.24-.67,.81,0,.53,.1,.58,.62,.68,.58,.09,1.92,.24,2.35,.52,.52,.34,.67,.72,.67,2.64v18.51c0,2.76,0,1.62-.1,6.23,0,1.33-.09,2.76-.09,4.15v.1c0,.43,.09,.48,.52,.48,.58,0,.62,0,.81-.29,.43-.63,1.05-1.01,1.72-1.01,.39,0,.91,.19,2.34,.67,1.68,.58,3.2,.82,4.87,.82,7.49,0,12.6-5.11,12.6-12.47Z"/><path class="cls-2" d="M168.58,115.58c-1.91,0-3.98-.14-5.94-.19-1.97-.04-3.98,.19-5.94,.19-.47,0-.52-.1-.52-.62,0-.57,.1-.72,.62-.76,1.29-.19,2.11-.48,2.48-.86,.73-.71,.54-3,.54-3.82v-23c0-.76,.14-2.14-.67-2.62-.43-.29-1.82-.43-2.34-.52-.48-.09-.57-.15-.57-.67,0-.57,.1-.71,.67-.81,2.02-.43,2.78-.62,3.64-.86,.38-.1,3.75-1.15,4.27-1.15,.48,0,.67,.34,.67,1.1-.04,3.53-.04,2.05-.04,7.87v18.95c0,2.06,.04,1.29,.04,3.96,0,1.96,1.29,2.19,3.02,2.44,.47,.05,.62,.19,.62,.76,0,.52-.1,.62-.52,.62Z"/><path class="cls-2" d="M179.73,88.95c-2.01,0-3.6-1.58-3.6-3.54s1.59-3.59,3.6-3.59,3.55,1.68,3.55,3.59-1.59,3.54-3.55,3.54Zm6.13,26.63c-1.96,0-3.97-.14-5.94-.19-1.97-.04-3.98,.19-5.94,.19-.48,0-.53-.1-.53-.62,0-.57,.1-.72,.62-.76,1.1-.14,2.58-.33,2.87-1.62,.1-.48,.14-.76,.14-3.05v-10.91c0-.76,.1-2.14-.66-2.62-.62-.38-1.63-.48-2.35-.53-.48-.04-.57-.14-.57-.71,0-.53,.1-.67,.67-.76,2.01-.43,2.77-.62,3.64-.86,1.34-.33,3.74-1.14,4.27-1.14,.48,0,.67,.33,.67,1.1-.04,3.52-.04,2.37-.04,6v8.72l.04,1.72v2.24c0,1.95,1.29,2.19,3.01,2.43,.48,.04,.62,.19,.62,.76,0,.52-.09,.62-.52,.62Z"/><path class="cls-2" d="M211.1,113.02c-2.53,1.9-5.56,2.99-8.28,2.99-7.18,0-12.4-5.23-12.4-12.39s4.75-11.76,11.34-11.76c1.01,0,2.01,.09,3.31,.33,1.19,.19,2.3,.28,2.73,.28,.9,0,1.39-.23,1.86-.95,.24-.33,.24-.48,.67-.48,.67,0,.77,.05,.77,.48,0,.62-.09,1.28-.09,1.94,0,1.48,.23,3,.23,4.49,0,.33-.29,.48-.87,.48-.23,0-.32-.1-.52-.38-1.68-2.86-4.16-4.38-7.18-4.38-4.35,0-6.79,2.76-6.79,7.58,0,6.77,3.73,11.59,9,11.59,2.24,0,4.83-.96,6.36-2.19,.19-.19,.43-.28,.53-.28,.29,0,.76,.91,.76,1.14,0,.29-.57,.86-1.43,1.53Z"/><path class="cls-2" d="M264.05,115.66c-1.05,0-2.25-.14-3.25-.19-.92-.05-2.06-.05-3.44-.05s-2.53,0-3.43,.05c-1.01,.05-2.24,.19-3.29,.19-.38,0-.38-.05-.38-.66,0-.53,.09-.67,.52-.72,1.33-.24,1.9-.43,2.48-.85,.95-.77,1.1-1.49,1.1-6.62v-7.33h-15.92v7.33c0,.75,.04,1.85,.04,3.24,.05,1.62,.2,2.29,.53,2.86,.47,.71,1.33,1.1,2.99,1.38,.43,.09,.53,.19,.53,.72,0,.62,0,.66-.43,.66-1,0-2.19-.14-3.24-.19-.92-.05-2.05-.05-3.44-.05s-2.53,0-3.44,.05c-1,.05-2.25,.19-3.3,.19-.38,0-.38-.05-.38-.66,0-.53,.09-.67,.53-.72,1.33-.24,1.91-.43,2.49-.85,.95-.77,1.09-1.49,1.09-6.62v-14.56c0-.76-.04-1.86-.04-3.3-.05-1.57-.19-2.29-.52-2.82-.53-.76-1.35-1.15-3.02-1.44-.43-.04-.53-.19-.53-.66q0-.67,.38-.67c1.11,0,2.21,.09,3.3,.14,.91,.05,2.06,.1,3.44,.1s2.53-.04,3.44-.1c1.09-.05,2.14-.14,3.24-.14q.43,0,.43,.67c0,.47-.1,.62-.53,.66-1.34,.24-1.91,.43-2.48,.91-.95,.76-1.09,1.43-1.09,6.64v5.3h15.92v-5.3c0-.76-.05-1.86-.05-3.3-.05-1.57-.19-2.29-.53-2.82-.52-.76-1.33-1.15-3-1.44-.43-.04-.52-.19-.52-.66q0-.67,.38-.67c1.05,0,2.28,.09,3.29,.14,.91,.05,2.05,.1,3.43,.1s2.53-.04,3.44-.1c1.05-.05,2.2-.14,3.25-.14q.43,0,.43,.67c0,.47-.1,.62-.52,.66-1.34,.24-1.91,.43-2.49,.91-.96,.76-1.11,1.43-1.11,6.64v14.56c0,.75,.05,1.85,.05,3.24,.05,1.62,.19,2.29,.52,2.86,.48,.71,1.34,1.1,3.02,1.38,.42,.09,.52,.19,.52,.72,0,.62,0,.66-.43,.66Z"/><path class="cls-2" d="M282.94,99.95h-10.28c.1-1.19,.14-1.58,.29-2.16,.62-2.44,2.01-4.08,4.69-4.08,2.92,0,4.93,2.3,5.3,6.23Zm6.56,11.29c0-.33-.48-1.05-.82-1.05-.13,0-.32,.14-.51,.28-1.73,1.33-4.69,2.29-7.04,2.29-4.77,0-8.17-4.38-8.36-10.8h1.58c4.45,0,8.9,.1,13.35,.1,.9,0,1.24-.24,1.24-.84,0-1.12-.76-3.42-1.58-4.76-1.81-2.97-4.97-4.66-8.8-4.66-6.45,0-11.44,5.18-11.44,11.78s5.46,12.49,12.31,12.49c3.59,0,6.51-1.25,9.61-4.12,.34-.28,.48-.52,.48-.71Z"/><path class="cls-2" d="M305.97,107.84c0,2.04-.05,2.33-.29,2.99-.53,1.37-2.48,2.13-3.82,2.13-1.94,0-3.23-1.38-3.23-3.38,0-1.61,.71-2.9,2.1-3.66,1.06-.57,2.62-1.24,5.24-2.14v4.04Zm10.54,3.66c0-.29-.62-.66-.85-.66-.06,0-.2,.14-.35,.33-.62,1-1.28,1.52-2,1.52s-1.25-.47-1.45-1.18c-.19-.81-.24-1-.24-3.23l-.05-7.32c-.05-5.51-1.96-9.22-8.14-9.22-2.53,0-4.85,.91-6.63,2.62-.71,.71-3.05,3.85-3.05,4.85,0,.33,.66,.66,.96,.66,.14,0,.33-.14,.52-.48,1.53-2.56,3.58-3.85,6.07-3.85,1.61,0,3.04,.71,3.81,1.91,.57,.94,.76,1.9,.76,4.6l-1.39,.48c-5.19,1.8-7.77,2.81-9.02,3.71-1.67,1.18-2.58,2.8-2.58,4.56,0,3.14,2.53,5.36,6.22,5.36,2.71,0,5.05-1.11,7.05-3.31,.53,1.39,1.01,2.02,1.92,2.59,.77,.48,1.78,.76,2.73,.76,2.07,0,4.02-1.25,4.99-3.12,.1-.14,.71-1.28,.71-1.57Z"/><path class="cls-2" d="M331.71,115.58c-1.91,0-3.97-.14-5.93-.19-1.96-.04-3.99,.19-5.94,.19-.48,0-.52-.1-.52-.62,0-.57,.09-.72,.62-.76,1.29-.19,2.1-.48,2.48-.86,.72-.71,.53-3,.53-3.82v-23c0-.76,.14-2.14-.68-2.62-.43-.29-1.81-.43-2.34-.52-.48-.09-.58-.15-.58-.67,0-.57,.1-.71,.67-.81,2.01-.43,2.77-.62,3.63-.86,.39-.1,3.75-1.15,4.27-1.15,.48,0,.67,.34,.67,1.1-.04,3.53-.04,2.05-.04,7.87v18.95c0,2.06,.04,1.29,.04,3.96,0,1.96,1.29,2.19,3.01,2.44,.48,.05,.62,.19,.62,.76,0,.52-.1,.62-.53,.62Z"/><path class="cls-2" d="M351,113.8c-2,1.58-4.06,2.34-6.16,2.34-1.77,0-3.35-.72-4.5-2.02-1.25-1.39-1.58-2.76-1.58-6.62v-13.08h-2.44c-.39,0-.53-.14-.53-.42,0-.66,1.34-1.51,1.62-1.75l2.82-2.49c1.24-1.1,2.05-1.82,2.39-2.15,.67-.72,1.15-1,1.49-1,.43,0,.62,.29,.62,.81,0,.19,.05-.15-.13,1.68-.11,.82-.11,1.58-.2,3.25h5.69c.77,0,.63,.61,.63,1.23,0,.76-.1,.85-.63,.85h-5.74v13.04c0,2.76,.15,3.38,.67,4.19,.53,.72,1.39,1.19,2.39,1.19,1.05,0,2.33-.47,3.2-1.09,.49-.43,.67-.53,.87-.53,.32,0,.81,.76,.81,1.05s-.57,.95-1.3,1.53Z"/><path class="cls-2" d="M383.96,115.58c-1.95,0-3.96-.23-5.91-.19-1.86,.05-3.81,.19-5.67,.19-.43,0-.53-.1-.53-.62,0-.57,.09-.67,.62-.76,1.67-.24,2.72-.62,2.72-2.43,0-.48,.04-1.19,.04-2.24v-8.96c0-3.38-1.05-5.53-4.67-5.53-2.01,0-4.97,.71-5.35,3.05-.09,.71-.15,1.19-.15,3.1v6.62c0,2.05,.05,1.28,.05,3.96,0,1.86,1.1,2.19,2.76,2.43,.48,.04,.58,.19,.58,.76,0,.52-.05,.62-.49,.62-1.86,0-3.81-.23-5.68-.19-1.96,.05-3.97,.19-5.93,.19-.48,0-.54-.1-.54-.62,0-.57,.1-.72,.63-.76,1.09-.14,2.57-.33,2.87-1.62,.29-1.24,.14-3.53,.14-4.77v-21.27c0-.77,.15-2.16-.66-2.63-.43-.29-1.81-.43-2.34-.53-.48-.1-.58-.14-.58-.68,0-.57,.09-.72,.67-.81,2-.43,2.77-.62,3.62-.86,.87-.24,3.54-1.15,4.26-1.15,.62,0,.67,.72,.67,1.15,0,3.45-.05,2.35-.05,5.98v8.11c.48-.38,.81-.72,1.05-.91,2.1-1.66,4.78-2.51,7.44-2.51,4.57,0,6.9,2.37,7.14,6.84,.04,1.19,.09,2.91,.09,5.77v3.48c0,2.05,.05,1.28,.05,3.96,0,1.95,1.3,2.19,3.02,2.43,.48,.04,.61,.19,.61,.76,0,.52-.08,.62-.52,.62Z"/></g><line class="cls-3" x1="68.78" y1="125.01" x2="384.32" y2="125.01"/></svg>